<?xml version="1.0" encoding="utf-8"?>
<!-- Generator: Adobe Illustrator 16.0.0, SVG Export Plug-In . SVG Version: 6.00 Build 0)  -->
<!DOCTYPE svg PUBLIC "-//W3C//DTD SVG 1.1//EN" "http://www.w3.org/Graphics/SVG/1.1/DTD/svg11.dtd">
<svg version="1.1" id="Layer_1" xmlns="http://www.w3.org/2000/svg" xmlns:xlink="http://www.w3.org/1999/xlink" x="0px" y="0px"
	 width="852px" height="104px" viewBox="0 0 852 104" enable-background="new 0 0 852 104" xml:space="preserve">
<g>
	<path d="M61.132,73.127c-0.384,0.05-0.927,0.15-1.473,0.211c-1.275,0.134-1.692,2.795-3.639,2.938
		c-0.324,0.024-0.447,0.012-0.653-0.013l-0.031,0.144c0,0,0.824,0.939,2.367,0.848c2.253-0.146,2.859-3.004,4.124-3.546
		c0.329,0.037,0.768,0.189,1.156,0.467l0.296-0.409C62.51,73.271,61.738,73.042,61.132,73.127"/>
	<path d="M47.075,79.92c-0.448,0-0.529-0.386-1.302-0.386h-0.712c-0.427,0-0.549-0.144-0.549-0.347c0-0.283,0.651-0.508,1.363-0.508
		c0.834,0,1.688,0.244,1.688,0.773C47.563,79.778,47.319,79.92,47.075,79.92 M49.983,77.396c-0.997,0.753-1.607,0.915-2.176,0.936
		c-1.2-0.162-1.485-0.183-1.871-0.183c-1.261,0-2.115,0.55-2.115,1.037c0,0.447,0.468,0.732,0.956,0.732h0.996
		c0.59,0,0.753,0.427,1.342,0.427c0.61,0,2.522-0.875,3.641-1.932C50.492,78.229,50.146,77.925,49.983,77.396"/>
	<path d="M59.425,79.246c-0.814,0.122-1.078,0.61-1.729,0.61c-0.407,0-0.651-0.184-0.651-0.447c0-0.305,0.326-0.427,0.753-0.488
		c0.508-0.061,1.017-0.284,1.566-0.284c0.427,0,0.589,0.122,0.589,0.284S59.811,79.186,59.425,79.246 M59.506,78.148
		c-0.854,0-1.363,0.325-2.237,0.325c-0.773-0.04-1.505-0.325-2.054-0.711c-0.305,0.324-0.671,0.711-1.18,1.037
		c0.773,0.671,1.933,1.545,3.498,1.545c1.078,0,1.383-0.631,2.156-0.691c0.895-0.061,1.119-0.468,1.119-0.753
		C60.808,78.515,60.299,78.148,59.506,78.148"/>
	<path d="M53.379,76.89c-0.081-0.772-0.448-1.342-1.546-1.342c-0.813,0-1.301,0.549-1.301,1.403c0,0.549,0.488,1.098,1.139,1.179
		c0.732,0.103,0.691,0.388,1.403,0.388c0.447,0,0.813-0.225,0.956-0.529C53.623,77.744,53.44,77.419,53.379,76.89"/>
	<path d="M54.071,73.962c-0.671,0-0.59-0.244-1.058-0.244c-0.406,0-0.65,0.59-1.057,0.731c-0.244,0.081-1.363,0.122-1.363,0.773
		c0,0.102,0.061,0.244,0.122,0.325l0.366-0.244c-0.02-0.021-0.04-0.062-0.04-0.103c0-0.142,0.203-0.264,0.854-0.264
		c1.525,0,1.973,0.773,2.034,1.424c0.04,0.469,0.183,0.874,0.488,0.996l0.488-0.325c0-0.184-0.102-0.305-0.102-0.569
		c0-0.325,0.143-0.59,0.143-1.118C54.946,74.896,54.823,73.962,54.071,73.962"/>
	<path d="M44.692,76.874c-0.841,0.592-1.952,1.202-2.91,1.188l-0.686-0.009c-1.832-0.023-1.548-2.602-2.755-2.618l-2.981-0.033
		l-0.006,0.438l0.92,0.006c1.541,0.021,1.111,2.555,3.712,2.673c0.707,0.03,1.29,0.037,1.936,0.025
		c0.916-0.009,2.047-0.535,3.118-1.249L44.692,76.874z"/>
	<path d="M49.256,76.275c-1.947-0.143-2.364-2.804-3.639-2.938c-0.546-0.06-1.089-0.161-1.473-0.21
		c-0.605-0.085-1.376,0.145-2.147,0.639l0.296,0.408c0.388-0.276,0.827-0.429,1.156-0.466c1.265,0.542,1.872,3.4,4.125,3.545
		c1.542,0.094,2.366-0.846,2.366-0.846l-0.03-0.145C49.704,76.287,49.581,76.299,49.256,76.275"/>
	<path d="M66.39,75.436c-1.207,0.017-0.923,2.595-2.755,2.618l-0.686,0.009c-0.958,0.014-2.069-0.597-2.91-1.188l-0.348,0.421
		c1.071,0.714,2.202,1.24,3.118,1.249c0.646,0.012,1.228,0.004,1.936-0.026c2.601-0.117,2.171-2.651,3.712-2.672l0.92-0.006
		l-0.006-0.437L66.39,75.436z"/>
	<path d="M74.512,46.586c-0.239-0.607-0.287-1.002-0.261-1.571c-0.731-0.972-1.036-1.736-0.997-2.777
		c0.368,0.119,0.927,0.452,1.256,0.837c0.109-0.272,0.266-0.527,0.491-0.814c-0.475-0.414-1.384-0.916-2.385-1.196
		C72.107,42.705,72.612,45.119,74.512,46.586"/>
	<path d="M79.804,58.243c0.174-0.009,0.323,0.125,0.332,0.3s-0.125,0.323-0.299,0.332c-0.175,0.01-0.323-0.125-0.332-0.3
		C79.495,58.401,79.63,58.252,79.804,58.243 M77.831,59.882c0.175-0.009,0.324,0.125,0.333,0.3c0.009,0.175-0.125,0.322-0.3,0.333
		c-0.174,0.008-0.323-0.125-0.332-0.301C77.523,60.04,77.657,59.892,77.831,59.882 M71.645,63.509
		c-0.175,0.009-0.324-0.125-0.333-0.3c-0.009-0.174,0.125-0.322,0.3-0.332c0.174-0.009,0.323,0.125,0.332,0.3
		C71.953,63.351,71.819,63.499,71.645,63.509 M68.098,54.282c-0.174,0-0.316-0.142-0.316-0.315c0-0.176,0.142-0.317,0.316-0.317
		c0.175,0,0.316,0.142,0.316,0.317C68.414,54.141,68.273,54.282,68.098,54.282 M74.579,53.54c-0.126,0.12-0.327,0.116-0.447-0.011
		c-0.121-0.126-0.116-0.326,0.01-0.447c0.126-0.12,0.326-0.115,0.447,0.011C74.71,53.22,74.705,53.419,74.579,53.54 M76.174,48.194
		c0.139,0.616-0.04,1.347-0.173,2.016c-0.198-0.248-0.526-0.472-0.996-0.581c0,0-0.411,0.104-1.13,0.104
		c-1.154,0-2.104-0.385-3.181-1.385c0,0,1.026-0.258,1.821-0.258c0.822,0,1.899,0.488,2.258,0.925l0.129-0.104
		c0,0-0.719-1.617-2.566-1.617c-1.232,0-2.079,0.283-3.413,0.72c0,0,0.436,0.358,1.309,1.154c0.923,0.847,1.873,1.359,3.463,1.359
		c0.488,0,0.925-0.102,1.284-0.256c0.341,0.067,0.721,0.357,0.929,0.815c-0.004,0.045-0.005,0.091-0.005,0.134
		c0,0.158,0.012,0.306,0.034,0.444c-0.096-0.02-0.211-0.034-0.343-0.034c-0.442,0-1.025,0.19-1.276,0.792
		c-0.241-0.018-0.489,0.062-0.677,0.242c-0.353,0.337-0.366,0.897-0.028,1.25c0.337,0.353,0.896,0.365,1.249,0.028
		c0.353-0.338,0.366-0.897,0.028-1.25c-0.061-0.065-0.13-0.117-0.204-0.159c0.003-0.011,0.007-0.021,0.01-0.031
		c0.077-0.281,0.436-0.461,0.822-0.461c0.236,0,0.411,0.061,0.561,0.144c0.351,0.904,1.106,1.366,1.106,2.115
		c0,0.409-0.179,0.795-0.539,1.308c-0.59,0.873-0.743,1.283-1.18,1.873c-0.41,0.564-0.924,0.77-1.36,1.489
		c-0.23,0.391-0.295,0.7-0.455,1.132c-0.506-0.564-0.776-1.228-0.776-2.005c0-0.103,0.025-0.205,0.025-0.333
		c0.488-0.744,0.719-1.463,0.719-2.156c0-1.796-1.617-3.259-3.978-3.695c-0.051,0.411-0.077,0.796-0.077,1.182
		c0,0.186,0.009,0.368,0.024,0.547c-0.049-0.005-0.099-0.01-0.152-0.01c-0.265,0-0.461,0.023-0.612,0.048
		c-0.138-0.309-0.447-0.523-0.806-0.523c-0.489,0-0.884,0.396-0.884,0.883c0,0.488,0.395,0.884,0.884,0.884
		c0.486,0,0.881-0.393,0.883-0.88c0.071-0.013,0.174-0.025,0.304-0.025c0.164,0,0.291,0.013,0.438,0.059
		c0.209,1.214,0.854,2.204,2.18,2.918l0.077-0.103c-1.104-1.231-1.437-2.591-1.437-3.388c0-0.103,0-0.23,0.025-0.308
		c1.386,0.385,2.233,1.565,2.233,2.874c0,0.565-0.154,1.129-0.462,1.694c-0.023,1.14,0.239,2.017,1.036,3.115
		c-0.151,0.298-0.292,0.611-0.369,1.118C72.9,62.151,72.9,62.306,72.9,62.459c0,0.385,0.076,0.881,0.082,1.334
		c-0.122-0.186-0.326-0.431-0.548-0.549c0-0.006,0.001-0.013,0-0.02c-0.025-0.488-0.441-0.862-0.928-0.837
		c-0.488,0.025-0.862,0.441-0.837,0.929c0.026,0.487,0.441,0.862,0.929,0.837c0.341-0.018,0.626-0.227,0.758-0.518
		c0.119,0.098,0.224,0.231,0.297,0.388c0.17,0.355,0.115,0.632,0.063,0.896c-0.184,0.345-0.501,0.66-0.705,1.134
		c-0.226,0.526-0.214,1.024-0.522,1.641c-0.271,0.541-0.653,1.104-1.126,1.557l-0.048-0.009c0.065-0.161,0.133-0.311,0.179-0.481
		c0.394-1.488,0.019-3.181-1.408-3.903c-0.078,0.192-0.162,0.408-0.227,0.657c-0.309,1.165-0.317,2.197,0.259,2.829l0.069-0.062
		c-0.122-0.642-0.147-1.047-0.003-1.593c0.073-0.273,0.13-0.391,0.188-0.508c0.626,0.644,0.683,1.933,0.466,2.752
		c-0.176,0.664-0.297,0.925-0.448,1.097c-0.192,0.156-0.379,0.31-0.48,0.398c-0.494,0.428-1.065,1.09-1.373,1.448l-0.077-0.024
		c0.231-0.59,0.539-1.515,0.539-2.361c0-0.949-0.462-2.104-1.488-2.745c-0.616,0.897-1.001,1.565-1.001,2.591
		c0,0.643,0.18,1.412,0.693,2.361l0.128-0.026c0,0-0.205-0.923-0.205-1.692c0-1.283,0.565-2.027,0.565-2.027
		s0.538,0.642,0.616,1.488c0.076,0.744-0.103,2.617-0.822,3.489c-0.128,0.154-0.256,0.257-0.41,0.385
		c-1.027,0.821-2.977,1.874-4.234,2.104l-0.488,1.309c2.404-0.876,3.48-1.384,4.645-2.129c0.497-0.319,0.641-0.411,1.129-0.72
		c0.77-0.486,1.514-0.847,2.514-1.077c0.334,0.076,0.668,0.103,1.001,0.103c0.719,0,1.386-0.18,2.104-0.667
		c1.155-0.77,1.565-2.618,1.565-2.618s-0.179-0.024-0.487-0.024c-0.513,0-1.309,0.076-2.13,0.436c-0.923,0.41-1.36,1.155-1.36,1.155
		l0.103,0.051c0,0,0.641-0.436,1.36-0.667c0.692-0.231,1.437-0.257,1.437-0.257s-0.513,1.206-1.463,1.643
		c-0.436,0.205-0.795,0.282-1.206,0.282c-0.308,0-0.616-0.052-0.975-0.128c-0.564,0.102-1.129,0.384-1.616,0.563l-0.052-0.076
		c0.206-0.231,0.488-0.565,1.052-1.129c0.744-0.744,1.591-1.283,2.387-2.131c0.224-0.246,0.39-0.469,0.518-0.667
		c0.284,0.094,0.91,0.266,1.66,0.259c1.539-0.014,3.072-0.823,3.391-2.392c-0.205-0.022-0.436-0.047-0.693-0.045
		c-1.206,0.011-2.204,0.277-2.66,0.999l0.078,0.051c0.587-0.288,0.971-0.42,1.536-0.425c0.282-0.002,0.41,0.022,0.539,0.047
		c-0.455,0.774-1.683,1.17-2.53,1.177c-0.585,0.007-0.877-0.028-1.078-0.1c0.044-0.089,0.08-0.169,0.111-0.238
		c0.256-0.564,0.293-1.252,0.565-1.771c0.076-0.146,0.173-0.299,0.274-0.467c0.153,0.025,0.307,0.048,0.462,0.06
		c3.581,0.286,5.48-1.571,6.343-3.999c-0.482-0.09-1.014-0.204-1.604-0.229c-1.717-0.078-3.515,0.756-4.027,2.406l0.1,0.034
		c0.282-0.293,0.765-0.79,1.539-1.147c1.382-0.64,2.521-0.345,2.521-0.345s-0.359,1.064-2.007,1.953
		c-1.399,0.756-3.038,0.726-3.038,0.726s0.283-0.775,0.283-1.224c0-0.487-0.077-0.924-0.077-1.359c0-1.001,0.334-1.334,0.591-2.027
		c0.113-0.314,0.164-0.499,0.224-0.678c0.165,0.063,0.389,0.112,0.699,0.112c0.667,0,0.95-0.358,1.54-0.358
		c0.174,0,0.317,0.029,0.434,0.07c-0.114,0.157-0.177,0.354-0.166,0.562c0.025,0.488,0.441,0.863,0.929,0.837
		c0.487-0.024,0.862-0.44,0.836-0.929c-0.025-0.487-0.441-0.862-0.928-0.836c-0.12,0.006-0.233,0.036-0.335,0.085
		c-0.205-0.136-0.469-0.201-0.796-0.201c-0.59,0-0.898,0.257-1.488,0.257c-0.21,0-0.377-0.069-0.501-0.149
		c0.02-0.042,0.041-0.085,0.065-0.133c0.157-0.313,0.576-0.688,0.916-1.008c0.245,0.203,0.609,0.367,1.137,0.367
		c0.718,0,1.231-0.514,1.821-0.514c0.186,0,0.334,0.03,0.45,0.07c-0.093,0.149-0.144,0.326-0.134,0.516
		c0.026,0.486,0.441,0.861,0.929,0.836c0.487-0.025,0.862-0.441,0.836-0.928c-0.025-0.488-0.441-0.863-0.928-0.838
		c-0.178,0.01-0.341,0.071-0.475,0.169c-0.164-0.089-0.413-0.185-0.729-0.185c-0.564,0-1.129,0.359-1.77,0.359
		c-0.288,0-0.545-0.135-0.733-0.271c0.236-0.305,0.392-0.583,0.567-0.888c0.33,0.072,0.915,0.163,1.587,0.104
		c1.558-0.135,3.045-1.075,3.245-2.688c-0.21-0.008-0.446-0.014-0.705,0.008c-1.22,0.106-2.21,0.454-2.615,1.221l0.083,0.046
		c0.572-0.338,0.95-0.501,1.521-0.551c0.286-0.024,0.418-0.01,0.55,0.004c-0.399,0.82-1.612,1.318-2.468,1.393
		c-0.447,0.039-0.727,0.042-0.927,0.017c0.111-0.172,0.268-0.413,0.331-0.499c0.379-0.524,0.563-0.934,0.638-1.292
		c0.337-0.106,0.674-0.268,1.02-0.516c2.21-1.579,2.65-3.481,2.562-5.002c-0.084-1.446-0.61-2.742-0.61-2.742
		s-0.236,0.239-0.691,0.591c-1.556,1.216-2.334,2.462-2.263,3.685c0.061,1.047,0.37,1.63,0.753,2.183l0.096-0.056
		c0,0-0.19-0.689-0.231-1.388c-0.081-1.396,0.784-2.447,1.813-3.258c0.063,0.222,0.166,0.716,0.172,1.241
		c-0.025,1.632-0.93,3.958-2.577,4.768c-0.041-1.331-1.345-1.745-1.345-3.08c0-0.92,0.423-2.144,0.3-3.23
		c-0.36-0.388-0.821-1.155-0.897-2.308c-0.096-1.459,0.829-3.036,2.144-4.152c0.124,0.326,0.317,0.905,0.357,1.52
		c0.096,1.459-0.531,2.479-1.463,3.953l0.085,0.124c1.716-0.885,2.522-2.327,2.392-4.298c-0.084-1.28-0.667-2.322-1.274-3.336
		c-0.696,1.151-1.55,1.85-2.3,2.954c-0.68,0.996-0.92,2.041-0.853,3.064C75.076,46.749,75.448,47.316,76.174,48.194"/>
	<path d="M32.583,46.893l0.084,0.084c-0.558,0.755-1.284,2.121-1.423,3.294c0.028-0.279-0.112-1.341-0.14-1.592
		C31.383,48.009,32.053,47.117,32.583,46.893 M29.095,51.721l0.781,0.363c0-0.977,0-4.186-0.139-5.609l0.139-0.027
		c0.559,2.009,0.698,3.795,0.865,6.026l0.586,0.392c0.168-2.288,0.81-5.553,4.075-7.757c-1.396,0.194-3.628,1.449-4.521,2.874
		c-0.084-0.727-1.256-6.028-3.488-8.065c1.479,2.595,1.758,6.028,1.758,8.902C29.151,49.907,29.123,50.884,29.095,51.721"/>
	<path d="M27.783,53.2c1.144,0.558,2.204,1.256,2.93,2.064l0.056-0.056c-0.14-0.446-0.307-0.893-1.395-1.758l0.055-0.083
		c1.116,0.277,2.316,1.395,2.205,3.264c0.279,0.335,0.725,0.781,1.004,1.145l0.056,0.027c0.167-3.097-1.451-4.576-3.516-5.44
		c-1.786-0.698-3.823-1.341-4.939-4.019C24.101,50.855,25.886,52.307,27.783,53.2"/>
	<path d="M34.09,49.433c-0.363,0-0.726,0.112-1.032,0.335l0.027,0.111c0.196-0.056,0.391-0.083,0.558-0.083
		c0.837,0,1.535,0.418,1.926,1.004l-0.056,0.084c-0.502-0.279-1.172-0.642-1.842-0.642c-0.334,0-0.641,0.084-0.948,0.307
		c-0.67,0.503-0.586,1.954-0.81,2.707c0.335,0.363,0.586,0.753,0.81,1.172c0.362-0.949-0.028-2.762,0.558-3.181
		c0.167-0.112,0.335-0.168,0.53-0.168c1.144,0,2.706,1.759,3.935,1.759c-0.754-0.866-0.977-1.507-1.508-2.205
		C35.652,49.852,34.843,49.433,34.09,49.433"/>
	<path d="M27.197,50.912c-0.056-0.865-0.223-1.702-0.474-2.651l0.111-0.028c0.503,0.837,0.837,2.01,1.033,2.931l0.446,0.195
		c-0.223-2.205-1.423-4.939-3.432-6.251c1.423,2.01,1.646,4.576,1.842,5.581L27.197,50.912z"/>
	<path d="M35.346,69.245l0.083-0.056c1.088,2.036,2.372,4.046,5.637,5.859l-0.056,0.084c-1.563-0.614-2.679-1.312-3.823-2.261
		C35.876,71.031,35.373,69.608,35.346,69.245 M37.773,74.742c-0.586-0.502-1.507-1.145-3.014-1.953l0.056-0.084
		c0.279-0.028,1.005,0,1.953,0.67c2.261,1.59,3.935,2.539,7.535,3.348l-0.363-0.921c-2.511-0.92-4.772-2.595-6.111-7.087
		c-0.028,0.195-0.028,0.362-0.028,0.559c0,0.921,0.279,2.009,1.06,3.319l-0.084,0.057c-1.618-1.451-3.766-4.688-4.129-7.701H34.62
		c-0.196,0.697-0.252,1.367-0.252,2.037c0,1.729,0.224,2.817,1.033,4.185l-0.055,0.056c-2.038-1.952-2.763-5.077-2.763-7.423
		c0-1.478,0.223-2.037,0.223-3.376c0-2.595-3.042-4.325-5.581-7.088c0.53,1.898,1.2,3.461,3.042,4.912l0.055-0.056
		c-0.418-0.698-0.837-1.423-1.227-2.121l0.055-0.057c1.982,1.759,2.4,2.596,2.289,4.298c-0.14,1.926-0.028,3.265,0.641,5.553
		l-0.139,0.112c-0.642-0.922-1.033-2.149-1.395-4.187c-0.419-2.398-0.893-3.069-1.758-4.129c0.028,0.195,0.502,1.088,0.753,3.208
		c0.251,2.233,0.837,4.13,2.874,7.591l-0.139,0.111c-1.786-2.288-3.265-4.855-3.656-9.208c-0.195,0.53-0.307,1.116-0.307,1.729
		c0,0.586-0.028,1.229,0.168,1.814l-0.084,0.027c-0.53-0.921-1.674-1.675-3.069-1.618c0.007,0.006,0.015,0.011,0.023,0.018
		c1.436,1.122,3.132,4.309,3.911,5.396l0.223-0.167l-2.009-3.404l0.056-0.056c1.256,1.004,2.484,3.293,3.6,4.994
		c-0.53-0.168-1.2-0.307-1.898-0.307c-0.446,0-0.753,0.056-1.088,0.195c1.283,0.446,3.32,2.009,4.911,3.516l0.195-0.167
		c0,0-1.032-1.284-2.874-2.623l0.056-0.084c0.279,0,1.312,0.308,2.539,1.339c0.893,0.754,1.647,1.479,2.456,2.205l-0.056,0.084
		c-0.279-0.056-0.614-0.084-0.921-0.084c-0.474,0-0.976,0.057-1.423,0.195l0.028,0.028c1.089,0.278,3.07,1.45,4.493,2.566
		L37.773,74.742z"/>
	<path d="M27.742,60.719l0.174-0.092c-0.235-2.12-0.774-3.772-2.114-6.339l0.084-0.055c1.032,0.976,1.507,1.757,2.009,2.984
		l0.056-0.056c-0.14-1.088-0.53-2.288-1.312-3.182c-0.92-1.031-1.367-0.864-2.818-2.538c0.614,2.064,0.809,2.763,1.842,4.827
		C26.36,57.72,27.324,59.045,27.742,60.719"/>
	<path d="M26.864,61.114l0.267-0.033c-0.244-0.906-0.688-1.906-1.223-2.818c-0.456-0.191-1.176-0.337-2.016-0.383
		C25.221,58.871,26.018,59.727,26.864,61.114"/>
	<path d="M40.249,22.92c1.905-0.817,3.899-1.446,5.929-1.872c2.082-0.438,4.227-0.664,6.375-0.676c0.056,0,0.112,0,0.168,0
		c2.092,0,4.182,0.205,6.214,0.608c2.034,0.405,4.035,1.015,5.948,1.811c1.879,0.783,3.691,1.754,5.388,2.886
		c1.68,1.122,3.262,2.413,4.7,3.836c1.438,1.424,2.745,2.992,3.885,4.66c1.151,1.685,2.141,3.487,2.942,5.358
		c0.817,1.903,1.447,3.898,1.873,5.928c0.437,2.083,0.664,4.228,0.675,6.376c0.011,2.147-0.193,4.295-0.608,6.382
		c-0.405,2.033-1.014,4.034-1.811,5.948c-0.782,1.878-1.753,3.69-2.886,5.387c-1.122,1.681-2.413,3.262-3.836,4.701
		c-1.423,1.438-2.991,2.745-4.66,3.885c-1.684,1.15-3.487,2.14-5.357,2.942c-1.904,0.816-3.899,1.446-5.928,1.872
		c-2.083,0.437-4.228,0.665-6.376,0.676s-4.295-0.194-6.382-0.609c-2.033-0.403-4.035-1.013-5.948-1.81
		c-1.878-0.782-3.691-1.753-5.387-2.886c-1.681-1.122-3.263-2.413-4.701-3.836c-1.438-1.425-2.745-2.991-3.885-4.66
		c-1.15-1.686-2.14-3.487-2.942-5.357c-0.817-1.905-1.447-3.9-1.873-5.929c-0.437-2.082-0.664-4.228-0.675-6.375
		c-0.011-2.148,0.193-4.296,0.609-6.382c0.404-2.034,1.013-4.035,1.81-5.948c0.782-1.879,1.753-3.691,2.886-5.388
		c1.122-1.681,2.413-3.263,3.836-4.7c1.423-1.439,2.991-2.746,4.66-3.885C36.575,24.712,38.378,23.722,40.249,22.92 M29.741,29.263
		c-1.454,1.469-2.773,3.085-3.919,4.802c-1.158,1.734-2.15,3.586-2.949,5.507c-0.815,1.954-1.437,4-1.851,6.077
		c-0.424,2.134-0.633,4.326-0.621,6.521c0.011,2.195,0.243,4.386,0.69,6.513c0.435,2.074,1.079,4.113,1.913,6.06
		c0.82,1.91,1.831,3.753,3.007,5.475c1.164,1.705,2.5,3.307,3.97,4.761c1.469,1.454,3.085,2.772,4.802,3.919
		c1.733,1.158,3.586,2.15,5.505,2.949c1.955,0.814,4,1.438,6.079,1.85c2.076,0.413,4.211,0.622,6.348,0.622c0.057,0,0.115,0,0.172,0
		c2.194-0.011,4.385-0.243,6.513-0.689c2.074-0.436,4.112-1.079,6.059-1.914c1.911-0.819,3.753-1.831,5.474-3.006
		c1.705-1.165,3.307-2.5,4.761-3.97s2.773-3.086,3.92-4.803c1.157-1.733,2.149-3.586,2.949-5.505c0.814-1.955,1.436-4,1.85-6.079
		c0.424-2.132,0.633-4.326,0.621-6.52c-0.011-2.194-0.243-4.387-0.69-6.514c-0.435-2.073-1.078-4.112-1.913-6.059
		c-0.82-1.911-1.831-3.753-3.007-5.474c-1.164-1.705-2.5-3.308-3.969-4.763c-1.47-1.454-3.086-2.771-4.803-3.919
		c-1.733-1.156-3.586-2.149-5.505-2.948c-1.955-0.814-4-1.438-6.078-1.851c-2.133-0.424-4.326-0.633-6.521-0.622
		c-2.194,0.012-4.385,0.244-6.513,0.69c-2.074,0.435-4.112,1.079-6.058,1.914c-1.912,0.818-3.753,1.831-5.475,3.006
		C32.797,26.458,31.195,27.794,29.741,29.263"/>
	<path d="M47.35,55.529c1.884,4.558,4.688,8.676,10.648,10.078c0,0,0.263-0.35,0.526-0.745c-4.733-1.357-7.099-5.083-8.895-9.333
		C49.19,55.311,47.876,55.136,47.35,55.529"/>
	<path d="M64.133,40.981v-0.088c-1.446,0.526-2.629,1.403-3.593,2.761c0.394,0.219,0.964,0.352,1.314,0.352
		C62.424,42.821,63.213,41.771,64.133,40.981"/>
	<path d="M63.432,64.819c0.394,0,1.008-0.089,1.446-0.308c-0.132-1.095-0.613-1.971-1.227-2.629c-0.219,0.658-0.57,1.49-0.57,1.49
		C63.212,63.811,63.344,64.249,63.432,64.819"/>
	<path d="M58.655,63.504c-0.176-0.219-0.263-0.481-0.263-0.789c0-0.656,0.482-1.27,1.796-1.313c0.176-0.395,0.22-1.008,0.22-1.008
		c-1.753-0.131-2.936,0.613-2.936,1.797C57.472,63.022,58.042,63.504,58.655,63.504"/>
	<path d="M52.871,55.705c0.307,0.35,0.351,0.394,0.657,0.612c0.351-0.524,0.833-0.92,1.403-1.226c0,0,0.262-0.614,0.394-1.008
		c-0.438,0.131-0.789,0.35-1.139,0.568l3.505-8.938c1.577,0.613,2.805,0.964,4.25,0.964c3.725,0,5.346-1.797,5.346-3.506
		c0-0.745-0.438-1.446-0.832-1.621c0.35,1.884-0.964,3.242-3.637,3.242c-2.279,0-5.214-1.577-5.214-1.577
		C57.121,45.408,53.353,54.696,52.871,55.705"/>
	<path d="M45.598,44.093c0.219,0.307,0.701,1.227,1.008,1.884c0.35-0.087,0.876-0.263,0.876-0.263l3.506,8.938
		c-1.052-0.7-2.41-1.051-3.681-1.051c-3.243,0-5.434,2.366-5.434,5.871c0,1.578,0.526,3.243,1.666,5.171c0,0,1.007,0,2.059-0.307
		c-0.964-1.753-1.578-3.505-1.578-5.258c0-2.849,1.49-4.558,3.856-4.558c1.622,0,2.893,0.613,3.769,1.796
		c0.307-0.219,0.35-0.263,0.657-0.612c-0.526-1.008-4.206-10.298-4.688-12.488C47.614,43.217,46.781,43.61,45.598,44.093"/>
	<path d="M53.353,70.56c0,0,0.92,0.438,1.621,0.438c5.653-2.629,8.282-8.325,8.282-11.524c0-3.506-1.139-5.214-4.119-5.783
		c-0.175,0.481-0.263,0.964-0.263,0.964c1.402,0.307,2.279,1.401,2.279,4.119C61.153,63.768,57.428,68.412,53.353,70.56"/>
	<path d="M71.144,59.955c0-2.585-1.928-4.031-3.944-4.031c-1.752,0-2.366,1.008-2.366,1.884c0,1.14,0.876,1.621,1.621,1.665
		c-0.306-0.307-0.569-0.833-0.569-1.357c0-0.526,0.35-1.141,1.314-1.141s2.279,0.964,2.279,3.155c0,2.498-1.928,5.259-6.924,5.259
		h-0.438c-0.088,0.307-0.35,0.744-0.35,0.744h1.008C66.806,66.133,71.144,63.767,71.144,59.955"/>
	<path d="M50.461,66.879c0,0,1.271,1.227,2.016,1.532c0.744-0.306,2.015-1.532,2.015-1.532s-1.227-0.745-2.015-1.49
		C51.688,66.134,50.461,66.879,50.461,66.879"/>
	<path d="M49.848,71.698c-0.394,0.044-0.701,0.044-1.052,0.044c-4.25,0-7.098-3.067-7.098-6.047c0-0.92,0.131-1.709,0.394-2.323
		c-0.307-0.525-0.657-1.401-0.657-1.401c-0.745,0.789-1.227,1.928-1.227,3.331c0,4.338,3.812,7.142,8.282,7.142
		c0.832,0,1.972-0.132,2.716-0.219C50.724,72.093,49.848,71.698,49.848,71.698"/>
	<path d="M63.344,66.747c-0.57,2.585-3.286,4.995-7.011,4.995c-2.279,0-4.776-1.052-6.923-2.761
		c-0.92-0.744-1.841-1.621-2.586-2.586c-0.832,0.221-2.015,0.308-2.015,0.308c2.41,3.067,6.31,5.739,11.875,5.739
		c3.987,0,7.449-2.277,8.15-5.826C64.22,66.703,63.344,66.747,63.344,66.747"/>
	<path d="M53.353,40.763c-2.147,1.052-3.418,2.542-3.418,4.294c0,1.753,1.271,2.892,2.761,2.892c1.446,0,2.629-1.183,2.629-2.717
		c0-1.007-0.307-1.884-0.92-2.629c-0.657,0.132-1.096,0.439-1.096,0.439c0.789,0.612,1.271,1.313,1.271,2.233
		c0,1.184-0.832,2.061-1.884,2.061c-1.096,0-1.884-0.877-1.884-2.061c0-1.709,1.577-2.76,3.768-3.549
		c3.944-1.446,7.143-1.227,12.488-1.227c4.952,0,7.449-3.769,7.625-5.521c-3.812,4.338-8.852,3.33-15.775,4.25
		C56.552,39.491,54.229,40.324,53.353,40.763"/>
	<path d="M33.854,59.955c0,2.892,2.629,5.083,5.74,5.872c0-0.308,0.044-0.789,0.044-0.789c-2.936-0.832-4.119-2.98-4.119-4.908
		c0-2.191,1.315-3.155,2.279-3.155c0.964,0,1.314,0.614,1.314,1.141c0,0.525-0.263,1.051-0.57,1.357
		c0.746-0.044,1.622-0.525,1.622-1.665c0-0.876-0.614-1.884-2.366-1.884C35.782,55.924,33.854,57.37,33.854,59.955"/>
	<path d="M37.885,43.173c0,1.709,1.621,3.505,5.346,3.505h0.263c0,0-0.395-1.271-0.745-1.884h-0.395
		c-2.672,0-3.987-1.358-3.636-3.242C38.323,41.727,37.885,42.428,37.885,43.173"/>
	<path d="M42.223,65.389c0,0,0,0.569,0.044,0.745c4.162,0,7.23-1.008,9.508-2.585c-0.482-0.352-1.007-1.052-1.007-1.052
		c-1.972,1.753-4.645,2.892-8.326,2.892H42.223z"/>
	<path d="M47.657,62.189c0-1.183-1.183-1.928-2.936-1.797c0,0,0.044,0.614,0.219,1.008c1.315,0.044,1.797,0.657,1.797,1.315
		c0,0.307-0.088,0.569-0.263,0.788C47.087,63.504,47.657,63.022,47.657,62.189"/>
	<path d="M58.655,46.81c-0.745,1.797-1.534,4.075-2.279,6.134c-0.92,2.498-1.971,5.04-3.418,7.1
		c0.263,0.438,0.789,1.008,1.228,1.357c2.234-2.409,3.768-6.09,4.863-9.771c0.526-0.526,1.139-0.833,1.972-0.833
		c1.139,0,1.621,0.745,1.665,2.234h0.395c0.438-1.796,1.095-3.418,2.103-5.302c0,0-0.307-0.175-0.614-0.175
		c-1.314,2.146-3.023,1.753-5.214,3.155c0.394-1.141,0.745-2.366,1.096-3.463C59.882,47.203,59.226,47.028,58.655,46.81"/>
	<path d="M40.821,40.894v0.088c2.41,2.147,3.593,5.696,4.82,9.728c-2.191-1.402-3.9-1.008-5.215-3.155
		c-0.306,0-0.613,0.176-0.613,0.176c1.008,1.885,1.665,3.506,2.103,5.303h0.395c0.044-1.49,0.526-2.235,1.665-2.235
		c0.833,0,1.446,0.307,1.972,0.833c0.131,0.438,0.263,0.92,0.394,1.358c0.92-0.22,2.279-0.044,2.279-0.044
		C46.649,47.642,45.115,42.428,40.821,40.894"/>
	<path d="M38.367,40.5c5.346,0,8.457-0.132,12.357,1.314c0,0,0.789-0.833,1.358-1.052c-0.876-0.438-3.199-1.271-5.565-1.534
		c-6.923-0.92-11.962,0.088-15.774-4.25C30.918,36.731,33.417,40.5,38.367,40.5"/>
	<path d="M54.207,26.173c0,0.198,0.16,0.357,0.358,0.357c0.197,0,0.358-0.159,0.358-0.357c0-0.197-0.161-0.358-0.358-0.358
		C54.367,25.814,54.207,25.976,54.207,26.173"/>
	<path d="M56.436,26.576c0.28,0,0.476-0.196,0.476-0.476c0-0.271-0.205-0.477-0.476-0.477c-0.258,0-0.476,0.218-0.476,0.477
		C55.96,26.372,56.165,26.576,56.436,26.576"/>
	<path d="M55.444,26.701c0.198,0,0.358-0.16,0.358-0.357c0-0.198-0.16-0.358-0.358-0.358c-0.198,0-0.358,0.16-0.358,0.358
		C55.086,26.541,55.247,26.701,55.444,26.701"/>
	<path d="M50.856,26.53c0.198,0,0.358-0.16,0.358-0.357s-0.16-0.358-0.358-0.358c-0.198,0-0.358,0.161-0.358,0.358
		S50.658,26.53,50.856,26.53"/>
	<path d="M49.976,26.701c0.198,0,0.358-0.16,0.358-0.357c0-0.198-0.16-0.358-0.358-0.358c-0.198,0-0.358,0.16-0.358,0.358
		C49.618,26.541,49.778,26.701,49.976,26.701"/>
	<path d="M48.994,26.576c0.271,0,0.476-0.204,0.476-0.476c0-0.259-0.218-0.477-0.476-0.477c-0.271,0-0.476,0.205-0.476,0.477
		C48.518,26.38,48.714,26.576,48.994,26.576"/>
	<path d="M60.041,30.362c-0.198,0-0.358,0.159-0.358,0.357c0,0.197,0.16,0.358,0.358,0.358c0.198,0,0.358-0.161,0.358-0.358
		C60.398,30.521,60.238,30.362,60.041,30.362"/>
	<path d="M61.732,28.912c0-0.258-0.218-0.476-0.476-0.476c-0.271,0-0.476,0.205-0.476,0.476c0,0.271,0.205,0.477,0.476,0.477
		C61.514,29.389,61.732,29.17,61.732,28.912"/>
	<path d="M60.653,30.231c0.198,0,0.358-0.159,0.358-0.357c0-0.197-0.16-0.358-0.358-0.358c-0.198,0-0.358,0.161-0.358,0.358
		C60.295,30.072,60.456,30.231,60.653,30.231"/>
	<path d="M59.533,38.396v-1.121l-0.009-0.002c-0.877-0.19-3.43-0.55-6.809-0.55c-3.379,0-5.932,0.359-6.81,0.55l-0.008,0.002v1.121
		l0.013-0.002c0.877-0.177,3.428-0.509,6.805-0.509c3.377,0,5.928,0.332,6.805,0.509L59.533,38.396z"/>
	<path d="M44.174,28.437c-0.258,0-0.476,0.218-0.476,0.476s0.218,0.477,0.476,0.477c0.271,0,0.476-0.205,0.476-0.477
		C44.65,28.642,44.445,28.437,44.174,28.437"/>
	<path d="M46.89,30.073l-0.041,0.027l0.182,0.443l0.044-0.033c0.004-0.003,0.382-0.281,1.093-0.556
		c0.657-0.253,1.74-0.556,3.173-0.556h0.06l-0.156-0.467h-0.031C48.673,28.933,47.262,29.806,46.89,30.073"/>
	<path d="M58.399,30.544l0.183-0.443l-0.042-0.027c-0.372-0.269-1.784-1.141-4.324-1.141h-0.031l-0.156,0.467h0.06
		c2.742,0,4.251,1.101,4.266,1.111L58.399,30.544z"/>
	<path d="M61.176,32.738l0.027,0.051l0.338-0.338l-0.014-0.028c-0.034-0.067-0.487-0.782-1.028-1.178l-0.024-0.018l-0.344,0.299
		C60.771,32.001,61.172,32.731,61.176,32.738"/>
	<path d="M44.931,31.245c-0.541,0.396-0.994,1.11-1.028,1.178l-0.014,0.028l0.338,0.337l0.027-0.05
		c0.004-0.008,0.405-0.738,1.045-1.212l-0.344-0.298L44.931,31.245z"/>
	<path d="M63.989,28.353c0.271,0,0.476-0.205,0.476-0.477c0-0.258-0.218-0.476-0.476-0.476c-0.258,0-0.476,0.218-0.476,0.476
		C63.513,28.147,63.718,28.353,63.989,28.353"/>
	<path d="M62.847,27.887c0.271,0,0.476-0.205,0.476-0.476c0-0.258-0.218-0.477-0.476-0.477c-0.258,0-0.476,0.219-0.476,0.477
		C62.371,27.682,62.576,27.887,62.847,27.887"/>
	<path d="M64.666,32.008c0.258,0,0.476-0.218,0.476-0.476s-0.218-0.477-0.476-0.477c-0.258,0-0.476,0.219-0.476,0.477
		S64.407,32.008,64.666,32.008"/>
	<path d="M41.481,28.353c0.271,0,0.476-0.205,0.476-0.477c0-0.258-0.218-0.476-0.476-0.476c-0.258,0-0.476,0.218-0.476,0.476
		C41.005,28.147,41.21,28.353,41.481,28.353"/>
	<path d="M40.663,29.462c0.297,0,0.539-0.251,0.539-0.56c0-0.304-0.237-0.539-0.539-0.539c-0.309,0-0.561,0.24-0.561,0.539
		C40.102,29.205,40.359,29.462,40.663,29.462"/>
	<path d="M40.413,30.87c0.297,0,0.539-0.251,0.539-0.561c0-0.303-0.237-0.539-0.539-0.539c-0.309,0-0.56,0.241-0.56,0.539
		C39.853,30.613,40.109,30.87,40.413,30.87"/>
	<path d="M42.623,27.887c0.271,0,0.476-0.205,0.476-0.476c0-0.258-0.218-0.477-0.476-0.477c-0.258,0-0.476,0.219-0.476,0.477
		C42.147,27.682,42.352,27.887,42.623,27.887"/>
	<path d="M40.805,31.057c-0.258,0-0.476,0.218-0.476,0.476s0.218,0.477,0.476,0.477c0.258,0,0.476-0.219,0.476-0.477
		S41.063,31.057,40.805,31.057"/>
	<path d="M41.533,32.689c0.198,0,0.358-0.16,0.358-0.358s-0.16-0.358-0.358-0.358c-0.198,0-0.358,0.16-0.358,0.358
		S41.335,32.689,41.533,32.689"/>
	<path d="M46.922,32.2c0.235,0,0.433,0.198,0.433,0.433s-0.198,0.433-0.433,0.433c-0.247,0-0.433-0.186-0.433-0.433
		C46.489,32.387,46.675,32.2,46.922,32.2 M52.715,31.438c0.343,0,0.623,0.28,0.623,0.624c0,0.349-0.274,0.623-0.623,0.623
		c-0.35,0-0.623-0.274-0.623-0.623C52.092,31.719,52.371,31.438,52.715,31.438 M58.507,32.2c0.247,0,0.433,0.187,0.433,0.433
		c0,0.247-0.186,0.433-0.433,0.433c-0.234,0-0.433-0.198-0.433-0.433S58.273,32.2,58.507,32.2 M44.67,27.75
		c0,0.805,0.505,1.502,0.95,2.117c0.302,0.416,0.587,0.811,0.672,1.18c-0.1,0.032-0.178,0.101-0.205,0.18
		c-0.019,0.056-0.009,0.112,0.028,0.158l0.148,0.19c0.037,0.045,0.053,0.089,0.047,0.125c-0.003,0.024-0.017,0.045-0.04,0.061
		c-0.055,0.037-0.106-0.026-0.126-0.058l-0.084-0.104c-0.035-0.047-0.085-0.074-0.138-0.078c-0.053-0.004-0.105,0.016-0.144,0.055
		l-0.358,0.401c-0.047,0.046-0.068,0.099-0.061,0.154c0.007,0.059,0.046,0.111,0.11,0.149l0.149,0.085
		c0.151,0.076,0.157,0.102,0.136,0.145c-0.032,0.048-0.114,0.044-0.324-0.014c-0.082-0.022-0.154-0.013-0.201,0.03
		c-0.045,0.04-0.063,0.103-0.051,0.173l0.042,0.42c0,0.063,0.026,0.118,0.072,0.15c0.039,0.027,0.11,0.05,0.225,0.007
		c0.058-0.022,0.232-0.09,0.279-0.067c0.005,0.002,0.011,0.007,0.017,0.026c0.013,0.036-0.03,0.069-0.157,0.154
		c-0.046,0.034-0.071,0.075-0.074,0.12c-0.004,0.056,0.026,0.118,0.09,0.181l0.213,0.234c0.058,0.058,0.123,0.083,0.194,0.075
		c0.069-0.008,0.14-0.048,0.21-0.118c0.054-0.054,0.103-0.107,0.151-0.16c0.046-0.052,0.094-0.105,0.146-0.157
		c0.016-0.016,0.04-0.034,0.065-0.028c0.033,0.008,0.066,0.052,0.093,0.122c0.099,0.268,0.093,0.491-0.016,0.648
		c-0.119,0.17-0.359,0.261-0.694,0.261c-0.299,0-0.511-0.134-0.581-0.259c-0.036-0.063-0.037-0.125-0.004-0.18l0.003-0.006
		c0.081-0.142,0.158-0.275-0.055-0.418l-0.211-0.146c-0.152-0.109-0.281-0.1-0.383,0.028c-0.133,0.177-0.202,0.186-0.296,0.139
		c-0.094-0.054-0.087-0.174-0.076-0.342c0.004-0.058,0.008-0.116,0.008-0.181c0-0.135-0.033-0.223-0.1-0.27
		c-0.108-0.074-0.29-0.025-0.473,0.042c-0.175-0.2-0.404-0.406-0.647-0.625c-0.677-0.609-1.444-1.299-1.444-2.212
		c0-0.661,0.375-1.039,0.69-1.239c0.352-0.223,0.725-0.293,0.8-0.293h0.051l-0.244-0.512l-0.023,0.004
		c-0.304,0.042-0.771,0.203-1.166,0.53c-0.32,0.265-0.701,0.733-0.701,1.468c0,1.106,0.777,1.811,1.463,2.431l0.048,0.045
		c0.212,0.192,0.498,0.458,0.689,0.662h-0.307c-0.566,0-0.788,0.438-0.79,0.441l-0.024,0.047h0.052c0.715,0,1.609,0.303,2.334,0.792
		c0.781,0.525,1.228,1.166,1.228,1.755v0.039l0.039-0.008c0.876-0.175,3.425-0.506,6.801-0.506c3.375,0,5.924,0.331,6.801,0.506
		l0.038,0.008V36.27c0-0.589,0.448-1.229,1.228-1.755c0.725-0.489,1.62-0.792,2.334-0.792h0.052l-0.023-0.047
		c-0.002-0.004-0.225-0.441-0.79-0.441h-0.307c0.191-0.204,0.476-0.47,0.688-0.662l0.049-0.045c0.686-0.62,1.462-1.324,1.462-2.431
		c0-0.734-0.381-1.203-0.701-1.468c-0.395-0.327-0.861-0.488-1.166-0.53l-0.023-0.004l-0.243,0.512h0.051
		c0.074,0,0.447,0.07,0.799,0.293c0.315,0.2,0.691,0.578,0.691,1.239c0,0.913-0.768,1.603-1.446,2.213
		c-0.242,0.218-0.47,0.424-0.646,0.624c-0.182-0.067-0.364-0.116-0.472-0.042c-0.067,0.047-0.1,0.135-0.1,0.27
		c0,0.064,0.004,0.123,0.007,0.181c0.011,0.161,0.019,0.288-0.074,0.341c-0.096,0.048-0.165,0.04-0.299-0.139
		c-0.101-0.127-0.229-0.137-0.382-0.028l-0.21,0.147c-0.213,0.143-0.137,0.276-0.055,0.418l0.003,0.007
		c0.033,0.054,0.031,0.115-0.004,0.179c-0.071,0.125-0.283,0.259-0.582,0.259c-0.335,0-0.575-0.091-0.694-0.261
		c-0.109-0.157-0.114-0.381-0.016-0.648c0.027-0.07,0.06-0.114,0.093-0.122c0.026-0.006,0.05,0.013,0.066,0.028
		c0.052,0.052,0.099,0.105,0.147,0.157c0.047,0.053,0.095,0.106,0.149,0.16c0.07,0.07,0.141,0.11,0.21,0.118
		c0.071,0.008,0.137-0.018,0.196-0.077l0.21-0.231c0.065-0.063,0.096-0.126,0.091-0.182c-0.003-0.045-0.028-0.086-0.075-0.121
		c-0.125-0.084-0.168-0.117-0.156-0.153c0.007-0.02,0.013-0.024,0.018-0.026c0.041-0.021,0.179,0.028,0.278,0.067
		c0.116,0.043,0.186,0.021,0.225-0.007c0.046-0.032,0.072-0.086,0.072-0.147l0.043-0.421c0.012-0.072-0.007-0.135-0.051-0.175
		c-0.048-0.043-0.119-0.053-0.201-0.03c-0.208,0.058-0.293,0.061-0.322,0.017c-0.023-0.045-0.018-0.071,0.135-0.148l0.149-0.084
		c0.062-0.038,0.101-0.091,0.108-0.149c0.007-0.056-0.014-0.108-0.059-0.153l-0.361-0.403c-0.038-0.038-0.09-0.058-0.142-0.054
		c-0.054,0.004-0.103,0.031-0.138,0.078l-0.086,0.107c-0.019,0.028-0.07,0.092-0.124,0.055c-0.023-0.016-0.037-0.036-0.041-0.061
		c-0.006-0.036,0.011-0.08,0.048-0.126l0.148-0.189c0.036-0.046,0.046-0.103,0.027-0.158c-0.027-0.079-0.104-0.147-0.205-0.18
		c0.086-0.369,0.371-0.764,0.672-1.18c0.446-0.615,0.95-1.312,0.95-2.117c0-0.671-0.408-1.386-1.554-1.386
		c-0.57,0-1.189,0.181-1.786,0.355c-0.577,0.168-1.173,0.342-1.702,0.342c-0.655,0-1.079-0.091-2.392-0.967l-0.029-0.019
		l-0.093,0.156l0.018,0.019c0.201,0.2,1.157,1.285,0.227,2.878l-0.01,0.017l0.074,0.111l0.027-0.024
		c0.629-0.553,1.026-1.342,0.54-2.277c0.524,0.451,1.1,0.615,1.725,0.615c0.664,0,1.272-0.192,1.886-0.362
		c0.502-0.141,0.977-0.272,1.346-0.272c0.761,0,1.13,0.301,1.13,0.92c0,0.577-0.411,1.188-0.809,1.778
		c-0.306,0.453-0.595,0.882-0.704,1.291c-0.108-0.02-0.211,0.002-0.272,0.056c-0.044,0.04-0.062,0.094-0.054,0.156l0.043,0.298
		c0.007,0.036,0.003,0.065-0.012,0.084c-0.013,0.016-0.036,0.025-0.062,0.025c-0.025,0-0.072,0-0.095-0.144l-0.021-0.105
		c-0.012-0.06-0.047-0.105-0.098-0.13c-0.05-0.024-0.108-0.024-0.159,0.002l-0.529,0.232c-0.058,0.029-0.101,0.077-0.115,0.128
		c-0.01,0.039-0.004,0.077,0.02,0.112l0.171,0.191c0.028,0.028,0.047,0.055,0.055,0.078c0.01,0.027,0.006,0.049-0.013,0.067
		c-0.022,0.021-0.063,0.018-0.193-0.069l-0.106-0.062c-0.057-0.034-0.119-0.044-0.176-0.027c-0.053,0.016-0.098,0.053-0.123,0.104
		l-0.17,0.36c-0.022,0.057-0.024,0.104-0.005,0.145c0.022,0.048,0.071,0.083,0.151,0.109l0.128,0.043
		c0.082,0.024,0.192,0.062,0.212,0.1c0.003,0.005,0.005,0.013-0.001,0.029c-0.011,0.034-0.024,0.039-0.148,0.058l-0.038,0.005
		c-0.066,0.011-0.111,0.034-0.136,0.071c-0.026,0.037-0.031,0.086-0.016,0.159l0.105,0.42c0.011,0.069,0.047,0.127,0.101,0.158
		c0.054,0.033,0.123,0.038,0.193,0.016c0.094-0.027,0.214-0.071,0.321-0.11c0.062-0.022,0.12-0.044,0.168-0.061
		c0.061-0.024,0.11-0.028,0.132-0.012c0.02,0.016,0.019,0.054,0.015,0.083c-0.087,0.65-0.402,0.967-0.962,0.967
		c-0.589,0-0.825-0.54-0.891-0.733c0.132-0.069,0.268-0.232,0.268-0.44c0-0.27-0.228-0.496-0.497-0.496
		c-0.27,0-0.498,0.227-0.498,0.496c0,0.188,0.098,0.361,0.245,0.439c-0.137,0.349-0.432,0.755-1.058,0.755
		c-0.298,0-0.603-0.13-0.837-0.355c-0.227-0.22-0.357-0.494-0.357-0.755c0-0.168,0.049-0.289,0.131-0.326
		c0.057-0.025,0.127-0.007,0.195,0.055l0.424,0.403c0.14,0.115,0.264,0.114,0.383-0.003l0.297-0.319
		c0.048-0.06,0.067-0.122,0.057-0.181c-0.01-0.057-0.048-0.105-0.107-0.142c-0.049-0.03-0.1-0.062-0.106-0.091
		c-0.002-0.006-0.002-0.015,0.01-0.033c0.024-0.037,0.154,0.022,0.319,0.099l0.041,0.019c0.065,0.032,0.134,0.032,0.194,0.001
		c0.069-0.036,0.115-0.107,0.128-0.195l0.084-0.654c0.013-0.093-0.011-0.181-0.066-0.234c-0.047-0.047-0.11-0.066-0.181-0.056
		c-0.063,0.007-0.126,0.021-0.182,0.032c-0.084,0.019-0.178,0.039-0.185,0.01c-0.009-0.025,0.002-0.059,0.15-0.107
		c0.067-0.027,0.116-0.074,0.138-0.133c0.022-0.058,0.017-0.122-0.015-0.188l-0.19-0.38c-0.035-0.068-0.094-0.119-0.165-0.141
		c-0.071-0.021-0.148-0.014-0.218,0.021l-0.612,0.339c-0.132,0.065-0.172,0.07-0.217,0.026c-0.027-0.026-0.043-0.071,0.046-0.19
		l0.38-0.527c0.046-0.058,0.066-0.128,0.055-0.198c-0.012-0.074-0.056-0.141-0.125-0.186l-0.297-0.212
		c-0.135-0.091-0.263-0.073-0.36,0.048c-0.018,0.021-0.033,0.043-0.049,0.063c-0.055,0.074-0.079,0.104-0.104,0.097
		c-0.014-0.005-0.017-0.012-0.019-0.015c-0.009-0.021,0.013-0.072,0.039-0.134c0.026-0.062,0.059-0.141,0.083-0.236
		c0.021-0.073,0.01-0.146-0.031-0.199c-0.045-0.061-0.122-0.096-0.211-0.096h-0.676c-0.089,0-0.166,0.035-0.212,0.096
		c-0.041,0.054-0.052,0.125-0.031,0.198c0.024,0.097,0.057,0.176,0.083,0.237s0.048,0.113,0.039,0.134
		c-0.001,0.003-0.005,0.008-0.017,0.014c-0.025,0.009-0.052-0.022-0.108-0.099c-0.014-0.019-0.029-0.039-0.047-0.061
		c-0.097-0.121-0.225-0.139-0.361-0.048l-0.295,0.211c-0.069,0.046-0.114,0.112-0.125,0.187c-0.011,0.07,0.008,0.141,0.054,0.197
		l0.381,0.529c0.088,0.118,0.073,0.163,0.045,0.189c-0.044,0.044-0.084,0.039-0.215-0.025l-0.615-0.34
		c-0.069-0.034-0.146-0.042-0.216-0.021c-0.072,0.021-0.131,0.072-0.165,0.141l-0.19,0.38c-0.033,0.065-0.038,0.13-0.016,0.188
		c0.023,0.059,0.072,0.105,0.14,0.133c0.146,0.049,0.157,0.082,0.148,0.11c-0.007,0.026-0.105,0.005-0.184-0.013
		c-0.056-0.012-0.12-0.025-0.182-0.032c-0.072-0.012-0.135,0.009-0.182,0.056c-0.054,0.054-0.079,0.142-0.066,0.233l0.085,0.655
		c0.013,0.088,0.059,0.159,0.127,0.195c0.06,0.032,0.129,0.031,0.193-0.001l0.043-0.019c0.164-0.075,0.294-0.136,0.318-0.099
		c0.012,0.019,0.012,0.027,0.011,0.033c-0.007,0.028-0.057,0.061-0.106,0.091c-0.06,0.036-0.097,0.085-0.107,0.142
		c-0.011,0.059,0.009,0.121,0.058,0.183l0.297,0.318c0.117,0.117,0.242,0.117,0.383,0l0.422-0.4
		c0.069-0.062,0.138-0.081,0.195-0.056c0.083,0.037,0.132,0.158,0.132,0.326c0,0.261-0.131,0.535-0.358,0.755
		c-0.234,0.226-0.539,0.355-0.836,0.355c-0.626,0-0.921-0.406-1.059-0.755c0.147-0.078,0.245-0.252,0.245-0.439
		c0-0.27-0.227-0.496-0.497-0.496s-0.497,0.227-0.497,0.496c0,0.208,0.135,0.371,0.267,0.44c-0.065,0.193-0.301,0.733-0.891,0.733
		c-0.56,0-0.875-0.316-0.962-0.967c-0.004-0.029-0.004-0.067,0.016-0.083c0.021-0.017,0.07-0.013,0.133,0.013
		c0.046,0.016,0.105,0.037,0.168,0.06c0.106,0.039,0.225,0.083,0.318,0.109c0.071,0.023,0.14,0.019,0.195-0.015
		c0.053-0.031,0.089-0.088,0.1-0.156l0.106-0.425c0.014-0.07,0.009-0.119-0.017-0.156c-0.025-0.037-0.07-0.061-0.137-0.071
		l-0.037-0.005c-0.124-0.019-0.136-0.023-0.148-0.058c-0.005-0.017-0.003-0.024,0-0.029c0.019-0.038,0.13-0.075,0.212-0.101
		l0.127-0.042c0.08-0.026,0.13-0.062,0.152-0.109c0.019-0.041,0.017-0.088-0.006-0.146l-0.17-0.359
		c-0.025-0.052-0.07-0.089-0.123-0.104c-0.056-0.017-0.119-0.007-0.176,0.027l-0.107,0.063c-0.129,0.086-0.17,0.089-0.192,0.068
		c-0.034-0.034-0.019-0.083,0.044-0.147l0.172-0.192c0.021-0.033,0.027-0.07,0.017-0.109c-0.014-0.051-0.057-0.1-0.116-0.129
		l-0.527-0.231c-0.051-0.026-0.11-0.026-0.16-0.002c-0.051,0.024-0.085,0.07-0.097,0.13l-0.021,0.106
		c-0.024,0.143-0.071,0.143-0.095,0.143c-0.027,0-0.049-0.01-0.062-0.025c-0.016-0.019-0.02-0.048-0.012-0.086l0.042-0.296
		c0.009-0.062-0.01-0.116-0.054-0.156c-0.06-0.054-0.163-0.075-0.272-0.056c-0.108-0.409-0.398-0.838-0.703-1.291
		c-0.398-0.591-0.81-1.201-0.81-1.778c0-0.619,0.37-0.92,1.131-0.92c0.369,0,0.843,0.132,1.346,0.272
		c0.614,0.17,1.309,0.362,1.973,0.362c0.625,0,1.094-0.214,1.472-0.432c-0.179,0.781,0.076,1.541,0.705,2.094l0.028,0.024
		l0.074-0.111l-0.011-0.017c-0.93-1.593,0.027-2.678,0.228-2.878l0.018-0.019l-0.094-0.156l-0.028,0.019
		c-1.313,0.876-1.737,0.967-2.392,0.967c-0.53,0-1.126-0.174-1.702-0.342c-0.598-0.175-1.216-0.355-1.787-0.355
		C45.078,26.364,44.67,27.079,44.67,27.75"/>
	<path d="M45.746,30.72c0-0.197-0.16-0.358-0.358-0.358c-0.197,0-0.358,0.161-0.358,0.358c0,0.198,0.161,0.357,0.358,0.357
		C45.586,31.077,45.746,30.918,45.746,30.72"/>
	<path d="M44.775,29.517c-0.198,0-0.358,0.159-0.358,0.357c0,0.197,0.16,0.358,0.358,0.358c0.197,0,0.358-0.161,0.358-0.358
		C45.133,29.676,44.972,29.517,44.775,29.517"/>
	<path d="M42.714,32.939c0-0.198-0.16-0.357-0.358-0.357c-0.198,0-0.358,0.159-0.358,0.357s0.16,0.358,0.358,0.358
		C42.554,33.298,42.714,33.138,42.714,32.939"/>
	<path d="M63.921,31.974c-0.198,0-0.358,0.159-0.358,0.357s0.16,0.358,0.358,0.358c0.198,0,0.358-0.16,0.358-0.358
		S64.119,31.974,63.921,31.974"/>
	<path d="M63.098,32.582c-0.198,0-0.358,0.159-0.358,0.357s0.16,0.358,0.358,0.358c0.198,0,0.358-0.16,0.358-0.358
		S63.296,32.582,63.098,32.582"/>
	<path d="M64.483,30.31c0,0.304,0.257,0.561,0.561,0.561c0.297,0,0.539-0.252,0.539-0.561c0-0.302-0.237-0.539-0.539-0.539
		C64.734,29.771,64.483,30.013,64.483,30.31"/>
	<path d="M64.269,28.901c0,0.305,0.257,0.561,0.56,0.561c0.298,0,0.539-0.251,0.539-0.561c0-0.302-0.236-0.539-0.539-0.539
		C64.52,28.362,64.269,28.604,64.269,28.901"/>
	<path d="M59.987,26.122c0.297,0,0.539-0.251,0.539-0.561c0-0.303-0.237-0.54-0.539-0.54c-0.309,0-0.56,0.242-0.56,0.54
		C59.427,25.865,59.684,26.122,59.987,26.122"/>
	<path d="M45.464,26.122c0.297,0,0.539-0.251,0.539-0.561c0-0.303-0.237-0.54-0.539-0.54c-0.309,0-0.561,0.242-0.561,0.54
		C44.903,25.865,45.16,26.122,45.464,26.122"/>
	<path d="M61.171,26.872c0.297,0,0.539-0.251,0.539-0.56c0-0.303-0.237-0.54-0.539-0.54c-0.309,0-0.56,0.242-0.56,0.54
		C60.611,26.615,60.867,26.872,61.171,26.872"/>
	<path d="M44.28,26.872c0.297,0,0.539-0.251,0.539-0.56c0-0.303-0.237-0.54-0.539-0.54c-0.309,0-0.56,0.242-0.56,0.54
		C43.72,26.615,43.976,26.872,44.28,26.872"/>
	<path d="M57.535,26.228c0.28,0,0.476-0.196,0.476-0.476c0-0.271-0.205-0.477-0.476-0.477c-0.258,0-0.476,0.218-0.476,0.477
		C57.059,26.022,57.264,26.228,57.535,26.228"/>
	<path d="M47.895,26.228c0.28,0,0.476-0.196,0.476-0.476c0-0.271-0.205-0.477-0.476-0.477c-0.258,0-0.476,0.218-0.476,0.477
		C47.419,26.022,47.624,26.228,47.895,26.228"/>
	<path d="M46.764,26.069c0.28,0,0.476-0.196,0.476-0.477c0-0.271-0.205-0.476-0.476-0.476c-0.258,0-0.476,0.218-0.476,0.476
		C46.288,25.864,46.493,26.069,46.764,26.069"/>
	<path d="M58.666,26.069c0.28,0,0.476-0.196,0.476-0.477c0-0.271-0.205-0.476-0.476-0.476c-0.258,0-0.476,0.218-0.476,0.476
		C58.19,25.864,58.395,26.069,58.666,26.069"/>
	<path d="M43.857,28.226c0.297,0,0.539-0.251,0.539-0.561c0-0.303-0.237-0.54-0.539-0.54c-0.309,0-0.56,0.242-0.56,0.54
		C43.297,27.968,43.553,28.226,43.857,28.226"/>
	<path d="M61.034,27.665c0,0.304,0.257,0.56,0.56,0.56c0.298,0,0.54-0.251,0.54-0.56c0-0.302-0.237-0.539-0.54-0.539
		C61.285,27.126,61.034,27.368,61.034,27.665"/>
	<path d="M53.265,27.657c0-0.302-0.237-0.539-0.539-0.539c-0.309,0-0.56,0.242-0.56,0.539c0,0.305,0.256,0.561,0.56,0.561
		C53.023,28.218,53.265,27.967,53.265,27.657"/>
	<path d="M53.073,26.478c0-0.198-0.16-0.358-0.358-0.358c-0.198,0-0.358,0.16-0.358,0.358c0,0.197,0.16,0.357,0.358,0.357
		C52.913,26.835,53.073,26.675,53.073,26.478"/>
	<path d="M52.357,28.858c0,0.198,0.16,0.358,0.358,0.358c0.197,0,0.358-0.16,0.358-0.358c0-0.197-0.161-0.357-0.358-0.357
		C52.517,28.501,52.357,28.661,52.357,28.858"/>
	<path d="M51.315,23.947h0.439v-0.391h0.343c0.063,0.177,0.2,0.319,0.374,0.389v0.344c-0.651,0.114-1.156,0.667-1.156,1.367
		c0.464-0.113,0.932-0.171,1.4-0.171c0.468,0,0.936,0.058,1.399,0.171c0-0.7-0.504-1.253-1.155-1.367v-0.344
		c0.173-0.069,0.31-0.212,0.373-0.389h0.343v0.391h0.439v-0.391h0.407v-0.439h-0.407v-0.406h-0.439v0.406h-0.342
		c-0.004-0.011-0.008-0.021-0.013-0.032c-0.072-0.173-0.216-0.308-0.394-0.368v-0.383h0.443V21.93h-0.443v-0.497h-0.423v0.497
		h-0.442v0.404h0.442v0.383c-0.178,0.061-0.321,0.195-0.393,0.368c-0.005,0.011-0.01,0.021-0.014,0.032h-0.342v-0.406h-0.439v0.406
		h-0.407v0.439h0.407V23.947z"/>
</g>
<rect x="428.795" y="39.861" width="3.895" height="34.173"/>
<rect x="416.355" y="28.584" width="3.828" height="45.45"/>
<g>
	<path d="M383.21,54.556c0.683-7.382,4.647-12.166,11.208-12.166c7.382,0,10.662,5.741,11.005,12.166H383.21z M394.418,39.041
		c-9.158,0-15.24,6.972-15.24,18.385c0,10.935,6.082,17.428,15.857,17.428c6.696,0,12.71-3.759,13.873-11.003h-3.895
		c-0.615,4.306-4.307,7.724-9.978,7.724c-7.657,0-11.688-5.399-11.962-13.602h26.245v-1.299
		C409.318,45.875,404.055,39.041,394.418,39.041"/>
	<path d="M358.197,71.574c-7.518,0-11.552-5.604-11.552-14.626c0-9.09,4.034-14.627,11.552-14.627
		c6.629,0,11.139,5.537,11.139,14.627C369.335,66.105,364.826,71.574,358.197,71.574 M368.995,44.099
		c-2.324-3.144-6.288-5.058-10.798-5.058c-9.159,0-15.447,6.152-15.447,17.907c0,11.756,6.357,17.905,15.173,17.905
		c4.579,0,8.817-2.186,11.072-5.33v3.69c0,6.424-4.443,9.294-10.934,9.294c-1.983,0-3.76-0.136-5.947-0.887v3.689
		c1.983,0.479,3.895,0.685,6.288,0.685c6.97,0,14.421-3.554,14.421-12.781V39.861h-3.828V44.099z"/>
	<path d="M323.751,39.041c-5.332,0-9.091,2.255-11.482,5.33V39.86h-3.895v34.174h3.895V49.771c1.845-3.896,6.083-7.45,11.003-7.45
		c5.399,0,9.022,3.008,9.022,10.458v21.255h3.827V52.3C336.121,43.21,331.131,39.041,323.751,39.041"/>
	<path d="M208.659,66.651V43.141h8.133v-3.28h-8.133v-7.312H204.9v7.312h-5.535v3.28h5.535v23.785c0,5.332,2.529,7.108,8.064,7.108
		h5.058v-3.28h-5.194C209.82,70.754,208.659,69.66,208.659,66.651"/>
	<path d="M170.386,54.556c0.683-7.382,4.648-12.166,11.208-12.166c7.382,0,10.662,5.741,11.005,12.166H170.386z M181.594,39.041
		c-9.158,0-15.24,6.972-15.24,18.385c0,10.935,6.082,17.428,15.857,17.428c6.696,0,12.71-3.759,13.873-11.003h-3.895
		c-0.615,4.306-4.307,7.724-9.978,7.724c-7.656,0-11.688-5.399-11.962-13.602h26.245v-1.299
		C196.494,45.875,191.231,39.041,181.594,39.041"/>
	<path d="M140.725,70.344h-9.704V32.275h9.704c11.551,0,16.882,6.901,16.882,19.136C157.606,63.372,152.275,70.344,140.725,70.344
		 M140.793,28.584h-13.601v45.449h13.601c13.942,0,20.709-7.928,20.709-22.622C161.502,36.581,154.735,28.584,140.793,28.584"/>
</g>
<polygon points="267.094,31.182 267.094,28.584 264.496,28.584 241.736,51.617 241.736,28.584 238.046,28.584 238.046,74.033 
	241.736,74.033 241.736,56.469 248.914,49.294 265.659,74.033 268.324,74.033 268.324,71.437 251.511,46.765 "/>
<g>
	<path d="M286.026,71.574c-7.382,0-11.892-5.399-11.892-14.626c0-9.229,4.51-14.627,11.892-14.627
		c7.38,0,11.959,5.398,11.959,14.627C297.985,66.175,293.406,71.574,286.026,71.574 M286.026,39.041
		c-9.568,0-15.789,6.356-15.789,17.907s6.221,17.905,15.789,17.905c9.568,0,15.855-6.354,15.855-17.905
		S295.594,39.041,286.026,39.041"/>
</g>
<polygon points="597.057,42.459 597.057,39.86 594.322,39.86 575.937,58.042 575.937,28.584 572.108,28.584 572.108,74.034 
	575.937,74.034 575.937,63.167 583.046,56.196 595.417,74.034 598.423,74.034 598.423,71.436 585.847,53.462 "/>
<rect x="428.795" y="28.584" width="3.895" height="6.561"/>
<g>
	<path d="M616.466,71.574c-7.519,0-11.55-5.604-11.55-14.626c0-9.09,4.031-14.627,11.55-14.627c6.629,0,11.141,5.537,11.141,14.627
		C627.606,66.105,623.095,71.574,616.466,71.574 M627.264,44.099c-2.322-3.144-6.286-5.058-10.798-5.058
		c-9.159,0-15.447,6.152-15.447,17.907c0,11.756,6.357,17.905,15.174,17.905c4.58,0,8.816-2.186,11.071-5.33v4.511h3.759V39.861
		h-3.759V44.099z"/>
	<path d="M677.907,54.556c0.684-7.382,4.647-12.166,11.208-12.166c7.382,0,10.662,5.741,11.005,12.166H677.907z M689.115,39.041
		c-9.158,0-15.24,6.972-15.24,18.385c0,10.935,6.082,17.428,15.856,17.428c6.696,0,12.71-3.759,13.873-11.003h-3.895
		c-0.615,4.306-4.307,7.724-9.979,7.724c-7.655,0-11.688-5.399-11.961-13.602h26.244v-1.299
		C704.015,45.875,698.752,39.041,689.115,39.041"/>
</g>
<path d="M538.758,54.829l8.68-22.076l8.747,22.076H538.758z M545.113,28.584l-16.949,42.852v2.598h3.075l6.22-15.65h20.025
	l6.22,15.65h3.007v-2.598l-16.95-42.852H545.113z"/>
<g>
	<path d="M746.32,39.041c-4.648,0-8.407,2.119-11.688,6.356c-1.708-4.237-5.33-6.356-10.114-6.356c-4.853,0-8.063,2.324-10.388,5.33
		V39.86h-3.896v34.174h3.896V49.771c1.776-3.896,5.261-7.45,9.979-7.45c4.715,0,7.858,2.938,7.858,10.253v21.46h3.828V49.771
		c2.188-4.237,5.605-7.45,10.046-7.45c4.717,0,7.861,2.938,7.861,10.253v21.46h3.826V52.3
		C757.528,43.279,753.087,39.041,746.32,39.041"/>
</g>
<rect x="766.141" y="28.584" width="3.895" height="6.561"/>
<g>
	<path d="M454.972,71.574c-7.519,0-11.551-5.604-11.551-14.626c0-9.09,4.032-14.627,11.551-14.627c6.629,0,11.14,5.537,11.14,14.627
		C466.111,66.105,461.601,71.574,454.972,71.574 M465.771,44.099c-2.324-3.144-6.288-5.058-10.799-5.058
		c-9.158,0-15.446,6.152-15.446,17.907c0,11.756,6.356,17.905,15.172,17.905c4.58,0,8.817-2.186,11.073-5.33v3.69
		c0,6.424-4.443,9.294-10.936,9.294c-1.982,0-3.76-0.136-5.947-0.887v3.689c1.982,0.479,3.896,0.685,6.289,0.685
		c6.971,0,14.42-3.554,14.42-12.781V39.861h-3.826V44.099z"/>
	<path d="M652.894,71.574c-7.518,0-11.552-5.604-11.552-14.626c0-9.09,4.034-14.627,11.552-14.627c6.629,0,11.14,5.537,11.14,14.627
		C664.033,66.105,659.522,71.574,652.894,71.574 M663.691,44.099c-2.323-3.144-6.287-5.058-10.798-5.058
		c-9.159,0-15.446,6.152-15.446,17.907c0,11.756,6.355,17.905,15.173,17.905c4.579,0,8.816-2.186,11.071-5.33v4.511h3.828v-45.45
		h-3.828V44.099z"/>
	<path d="M479.985,54.556c0.684-7.382,4.647-12.166,11.208-12.166c7.382,0,10.662,5.741,11.003,12.166H479.985z M491.193,39.041
		c-9.158,0-15.241,6.972-15.241,18.385c0,10.935,6.083,17.428,15.856,17.428c6.697,0,12.712-3.759,13.875-11.003h-3.897
		c-0.615,4.306-4.305,7.724-9.978,7.724c-7.654,0-11.688-5.399-11.96-13.602h26.245v-1.299
		C506.094,45.875,500.83,39.041,491.193,39.041"/>
</g>
<rect x="766.141" y="39.861" width="3.895" height="34.173"/>
<g>
	<rect x="3.439" y="2.733" fill="none" stroke="#000000" stroke-width="3" width="791.887" height="98.533"/>
</g>
<line fill="none" stroke="#000000" stroke-width="3" x1="102.029" y1="2.394" x2="102.029" y2="101.606"/>
<g>
	<path d="M807.274,22.269h2.668v2.853h25.257v-2.853h2.669v8.558h-2.669v-2.853h-25.257v2.853h-2.668V22.269z"/>
	<path d="M807.274,36.345h30.594v10.903c0,5.889-3.083,8.511-7.591,8.511c-2.484,0-5.153-1.196-6.165-4.37
		c-0.966,4.094-4.416,5.75-7.959,5.75c-5.337,0-8.879-3.956-8.879-9.385V36.345z M810.035,39.289v8.787
		c0,3.404,2.254,6.072,6.118,6.072s6.303-2.668,6.303-6.072v-8.787H810.035z M825.124,39.289v7.866c0,3.405,2.07,5.613,5.015,5.613
		s4.969-1.748,4.969-5.613v-7.866H825.124z"/>
	<path d="M807.274,62.196h30.594v2.852h-15.228l15.228,14.998v1.979h-1.979l-10.305-10.306l-16.332,11.134h-1.979v-2.07
		l16.332-11.041l-4.692-4.693h-11.64V62.196z"/>
</g>
<rect x="795.326" y="2.734" fill="none" stroke="#000000" stroke-width="3" width="53.234" height="98.532"/>
</svg>
