<?xml version="1.0" encoding="utf-8"?>
<!-- Generator: Adobe Illustrator 16.0.0, SVG Export Plug-In . SVG Version: 6.00 Build 0)  -->
<!DOCTYPE svg PUBLIC "-//W3C//DTD SVG 1.1//EN" "http://www.w3.org/Graphics/SVG/1.1/DTD/svg11.dtd">
<svg version="1.1" id="Layer_1" xmlns="http://www.w3.org/2000/svg" xmlns:xlink="http://www.w3.org/1999/xlink" x="0px" y="0px"
	 width="253.271px" height="29.857px" viewBox="0 0 253.271 29.857" enable-background="new 0 0 253.271 29.857"
	 xml:space="preserve">
<g>
	<path d="M17.526,21c-0.112,0.015-0.27,0.043-0.428,0.062c-0.371,0.039-0.492,0.812-1.058,0.854
		c-0.095,0.007-0.131,0.004-0.19-0.004l-0.009,0.043c0,0,0.239,0.273,0.688,0.246c0.655-0.042,0.831-0.874,1.199-1.031
		c0.096,0.012,0.223,0.056,0.336,0.136l0.086-0.119C17.926,21.042,17.702,20.975,17.526,21"/>
	<path d="M15.472,21.243c-0.195,0-0.172-0.071-0.308-0.071c-0.118,0-0.189,0.172-0.307,0.213c-0.071,0.024-0.396,0.035-0.396,0.225
		c0,0.029,0.018,0.071,0.035,0.095l0.107-0.071c-0.006-0.006-0.012-0.018-0.012-0.029c0-0.042,0.059-0.077,0.248-0.077
		c0.444,0,0.574,0.226,0.592,0.414c0.011,0.137,0.053,0.255,0.142,0.289l0.141-0.094c0-0.053-0.029-0.089-0.029-0.166
		c0-0.094,0.041-0.171,0.041-0.325C15.727,21.514,15.691,21.243,15.472,21.243"/>
	<path d="M14.072,21.915c-0.566-0.04-0.687-0.814-1.058-0.854c-0.159-0.018-0.317-0.047-0.428-0.061
		c-0.176-0.025-0.401,0.042-0.625,0.185l0.086,0.119c0.113-0.08,0.241-0.125,0.337-0.135c0.367,0.156,0.544,0.987,1.199,1.029
		c0.448,0.027,0.688-0.246,0.688-0.246l-0.009-0.042C14.202,21.919,14.166,21.922,14.072,21.915"/>
	<path d="M21.416,13.283c-0.069-0.178-0.083-0.291-0.076-0.457c-0.213-0.283-0.301-0.506-0.29-0.809
		c0.107,0.035,0.27,0.132,0.366,0.244c0.031-0.079,0.077-0.154,0.142-0.237c-0.138-0.12-0.402-0.266-0.693-0.348
		C20.717,12.154,20.864,12.855,21.416,13.283"/>
	<path d="M22.954,16.672c0.051-0.004,0.094,0.035,0.097,0.087c0.003,0.051-0.036,0.094-0.087,0.097
		c-0.051,0.002-0.094-0.037-0.097-0.087C22.865,16.718,22.904,16.675,22.954,16.672 M22.381,17.149
		c0.051-0.003,0.094,0.036,0.097,0.087c0.002,0.05-0.037,0.094-0.087,0.096c-0.051,0.003-0.094-0.035-0.097-0.087
		C22.291,17.194,22.33,17.151,22.381,17.149 M20.582,18.203c-0.051,0.003-0.094-0.036-0.097-0.087
		c-0.002-0.051,0.037-0.094,0.087-0.097c0.051-0.002,0.094,0.037,0.097,0.087C20.672,18.157,20.633,18.2,20.582,18.203
		 M19.551,15.52c-0.051,0-0.092-0.041-0.092-0.092c0-0.052,0.041-0.093,0.092-0.093c0.051,0,0.092,0.041,0.092,0.093
		C19.643,15.479,19.602,15.52,19.551,15.52 M21.435,15.304c-0.037,0.035-0.095,0.034-0.13-0.003
		c-0.035-0.036-0.034-0.095,0.003-0.13s0.095-0.033,0.13,0.003C21.473,15.21,21.472,15.269,21.435,15.304 M21.899,13.75
		c0.04,0.18-0.012,0.393-0.05,0.586c-0.058-0.071-0.153-0.137-0.29-0.169c0,0-0.119,0.03-0.328,0.03
		c-0.336,0-0.612-0.112-0.926-0.403c0,0,0.299-0.073,0.53-0.073c0.239,0,0.552,0.142,0.657,0.268l0.037-0.03
		c0,0-0.209-0.47-0.746-0.47c-0.358,0-0.604,0.083-0.992,0.209c0,0,0.126,0.105,0.38,0.336c0.269,0.246,0.545,0.396,1.007,0.396
		c0.142,0,0.269-0.03,0.373-0.075c0.1,0.02,0.21,0.104,0.271,0.237c-0.001,0.013-0.002,0.025-0.002,0.039
		c0,0.046,0.004,0.089,0.01,0.129c-0.028-0.006-0.061-0.011-0.1-0.011c-0.128,0-0.298,0.057-0.371,0.231
		c-0.07-0.005-0.142,0.018-0.197,0.07c-0.102,0.098-0.106,0.261-0.008,0.362c0.098,0.104,0.261,0.107,0.364,0.01
		c0.102-0.1,0.106-0.262,0.008-0.364c-0.018-0.02-0.038-0.034-0.06-0.046c0.001-0.003,0.002-0.006,0.003-0.009
		c0.023-0.082,0.127-0.135,0.239-0.135c0.069,0,0.12,0.018,0.163,0.042c0.103,0.264,0.322,0.397,0.322,0.614
		c0,0.12-0.052,0.232-0.157,0.381c-0.171,0.254-0.216,0.373-0.343,0.545c-0.119,0.164-0.268,0.224-0.395,0.433
		c-0.067,0.113-0.086,0.204-0.133,0.329c-0.147-0.163-0.225-0.356-0.225-0.582c0-0.03,0.007-0.061,0.007-0.098
		c0.142-0.217,0.209-0.426,0.209-0.627c0-0.521-0.47-0.948-1.157-1.075c-0.014,0.12-0.022,0.232-0.022,0.345
		c0,0.054,0.003,0.106,0.007,0.158c-0.014-0.002-0.029-0.003-0.044-0.003c-0.077,0-0.134,0.008-0.178,0.015
		c-0.04-0.09-0.13-0.152-0.235-0.152c-0.142,0-0.257,0.115-0.257,0.257c0,0.143,0.115,0.257,0.257,0.257s0.257-0.114,0.257-0.256
		c0.021-0.004,0.051-0.008,0.089-0.008c0.047,0,0.084,0.004,0.127,0.017c0.061,0.354,0.248,0.642,0.634,0.85l0.022-0.03
		c-0.321-0.357-0.418-0.754-0.418-0.985c0-0.029,0-0.066,0.008-0.09c0.403,0.112,0.649,0.456,0.649,0.836
		c0,0.164-0.045,0.328-0.134,0.493c-0.007,0.331,0.069,0.586,0.301,0.906c-0.044,0.086-0.085,0.177-0.107,0.325
		c-0.008,0.044-0.008,0.089-0.008,0.134c0,0.112,0.022,0.256,0.024,0.388c-0.036-0.054-0.095-0.125-0.159-0.16
		c0-0.002,0-0.004,0-0.006c-0.008-0.141-0.129-0.25-0.27-0.243c-0.142,0.009-0.251,0.129-0.244,0.271
		c0.008,0.142,0.129,0.251,0.27,0.243c0.099-0.005,0.182-0.066,0.221-0.15c0.034,0.028,0.065,0.067,0.086,0.113
		c0.05,0.103,0.034,0.183,0.019,0.26c-0.054,0.102-0.146,0.192-0.205,0.33c-0.066,0.153-0.063,0.298-0.152,0.478
		c-0.079,0.156-0.19,0.32-0.328,0.452l-0.013-0.003c0.018-0.046,0.038-0.09,0.051-0.14c0.115-0.433,0.006-0.925-0.409-1.135
		c-0.023,0.056-0.047,0.119-0.066,0.19c-0.09,0.339-0.092,0.64,0.075,0.823l0.02-0.018c-0.035-0.188-0.042-0.306,0-0.463
		c0.021-0.08,0.037-0.114,0.054-0.148c0.182,0.187,0.199,0.562,0.136,0.8c-0.052,0.193-0.087,0.27-0.13,0.319
		c-0.056,0.045-0.111,0.09-0.14,0.116c-0.144,0.124-0.31,0.316-0.399,0.421l-0.023-0.007c0.068-0.173,0.157-0.44,0.157-0.688
		c0-0.276-0.134-0.611-0.433-0.798c-0.179,0.261-0.291,0.455-0.291,0.754c0,0.186,0.053,0.41,0.202,0.686l0.037-0.007
		c0,0-0.06-0.269-0.06-0.493c0-0.373,0.164-0.589,0.164-0.589s0.157,0.187,0.18,0.433c0.022,0.217-0.03,0.762-0.239,1.015
		c-0.038,0.045-0.075,0.075-0.12,0.112c-0.298,0.238-0.865,0.545-1.231,0.611l-0.141,0.381c0.699-0.255,1.011-0.402,1.35-0.619
		c0.145-0.093,0.187-0.119,0.328-0.209c0.224-0.143,0.441-0.246,0.731-0.313c0.098,0.022,0.195,0.03,0.292,0.03
		c0.208,0,0.402-0.053,0.611-0.194c0.336-0.224,0.455-0.761,0.455-0.761s-0.052-0.008-0.141-0.008c-0.15,0-0.381,0.022-0.62,0.127
		c-0.268,0.119-0.395,0.336-0.395,0.336l0.03,0.015c0,0,0.186-0.127,0.395-0.193c0.202-0.067,0.418-0.075,0.418-0.075
		s-0.149,0.351-0.425,0.478c-0.127,0.06-0.231,0.082-0.351,0.082c-0.089,0-0.179-0.015-0.283-0.038
		c-0.164,0.03-0.329,0.112-0.47,0.165L19.5,20.845c0.059-0.067,0.141-0.164,0.306-0.328c0.216-0.217,0.462-0.373,0.693-0.619
		c0.066-0.072,0.114-0.137,0.151-0.194c0.083,0.027,0.265,0.077,0.483,0.075c0.447-0.004,0.893-0.24,0.986-0.696
		c-0.06-0.006-0.127-0.013-0.202-0.013c-0.35,0.003-0.641,0.081-0.773,0.291l0.022,0.015c0.171-0.084,0.283-0.121,0.447-0.124
		c0.082-0.001,0.119,0.007,0.157,0.015c-0.132,0.225-0.49,0.34-0.736,0.342c-0.17,0.002-0.255-0.008-0.313-0.029
		c0.013-0.025,0.023-0.049,0.032-0.068c0.075-0.165,0.085-0.364,0.164-0.516c0.023-0.043,0.051-0.087,0.08-0.136
		c0.045,0.008,0.089,0.014,0.134,0.017c1.042,0.083,1.594-0.455,1.845-1.161c-0.14-0.027-0.295-0.061-0.467-0.067
		c-0.499-0.023-1.022,0.219-1.171,0.7l0.03,0.009c0.081-0.085,0.222-0.229,0.447-0.333c0.402-0.186,0.733-0.1,0.733-0.1
		s-0.104,0.309-0.584,0.567c-0.406,0.219-0.883,0.21-0.883,0.21s0.082-0.225,0.082-0.354c0-0.143-0.022-0.27-0.022-0.396
		c0-0.291,0.097-0.388,0.172-0.589c0.033-0.092,0.048-0.145,0.065-0.197c0.048,0.019,0.113,0.033,0.203,0.033
		c0.194,0,0.276-0.104,0.448-0.104c0.051,0,0.092,0.009,0.126,0.021c-0.033,0.045-0.051,0.103-0.048,0.163
		c0.007,0.142,0.128,0.251,0.27,0.244c0.142-0.008,0.251-0.129,0.243-0.271c-0.007-0.142-0.128-0.251-0.27-0.243
		c-0.035,0.002-0.068,0.011-0.097,0.024c-0.06-0.039-0.137-0.058-0.232-0.058c-0.171,0-0.261,0.074-0.432,0.074
		c-0.061,0-0.11-0.021-0.146-0.043c0.006-0.013,0.012-0.025,0.019-0.039c0.046-0.092,0.167-0.2,0.266-0.293
		c0.072,0.059,0.177,0.106,0.331,0.106c0.209,0,0.358-0.148,0.53-0.148c0.054,0,0.097,0.008,0.13,0.02
		c-0.027,0.043-0.041,0.095-0.039,0.15c0.008,0.142,0.129,0.251,0.27,0.242c0.142-0.007,0.251-0.128,0.244-0.27
		c-0.008-0.142-0.129-0.251-0.27-0.243c-0.052,0.002-0.099,0.021-0.138,0.049c-0.048-0.025-0.12-0.054-0.212-0.054
		c-0.165,0-0.329,0.105-0.515,0.105c-0.084,0-0.159-0.039-0.213-0.079c0.068-0.089,0.114-0.17,0.165-0.259
		c0.096,0.021,0.266,0.048,0.461,0.03c0.453-0.039,0.886-0.312,0.944-0.782c-0.061-0.002-0.13-0.004-0.205,0.003
		c-0.355,0.031-0.643,0.133-0.761,0.355l0.024,0.013c0.167-0.098,0.277-0.146,0.443-0.16c0.083-0.007,0.121-0.003,0.16,0.002
		c-0.116,0.238-0.469,0.383-0.718,0.404c-0.13,0.011-0.211,0.013-0.27,0.005c0.033-0.05,0.079-0.12,0.097-0.145
		c0.11-0.153,0.163-0.272,0.185-0.376c0.098-0.031,0.196-0.078,0.297-0.15c0.642-0.459,0.77-1.012,0.745-1.454
		c-0.025-0.421-0.178-0.798-0.178-0.798s-0.068,0.07-0.201,0.172c-0.452,0.354-0.678,0.717-0.658,1.071
		c0.018,0.305,0.108,0.474,0.219,0.635l0.028-0.016c0,0-0.055-0.201-0.067-0.404c-0.023-0.406,0.228-0.711,0.527-0.947
		c0.019,0.065,0.049,0.208,0.05,0.361c-0.007,0.476-0.27,1.151-0.749,1.387c-0.012-0.388-0.391-0.508-0.391-0.896
		c0-0.269,0.123-0.624,0.087-0.94c-0.104-0.111-0.239-0.335-0.261-0.67c-0.028-0.425,0.241-0.884,0.624-1.208
		c0.036,0.096,0.092,0.264,0.104,0.442c0.027,0.424-0.155,0.72-0.426,1.148l0.025,0.036c0.499-0.257,0.733-0.676,0.695-1.249
		c-0.024-0.373-0.194-0.675-0.37-0.97c-0.202,0.334-0.451,0.538-0.669,0.859c-0.197,0.289-0.267,0.593-0.248,0.891
		C21.58,13.33,21.688,13.495,21.899,13.75"/>
	<path d="M9.224,13.372l0.025,0.024c-0.163,0.22-0.374,0.616-0.414,0.957c0.008-0.081-0.033-0.389-0.041-0.462
		C8.875,13.697,9.07,13.436,9.224,13.372 M8.21,14.775l0.227,0.105c0-0.283,0-1.217-0.04-1.63l0.04-0.009
		c0.163,0.585,0.203,1.104,0.252,1.753l0.17,0.113c0.049-0.666,0.235-1.614,1.185-2.256c-0.406,0.058-1.055,0.422-1.315,0.836
		c-0.024-0.211-0.365-1.753-1.014-2.345c0.43,0.754,0.511,1.752,0.511,2.588C8.226,14.249,8.218,14.533,8.21,14.775"/>
	<path d="M7.829,15.206c0.333,0.162,0.641,0.365,0.852,0.6l0.016-0.016c-0.04-0.13-0.089-0.259-0.405-0.511l0.016-0.024
		c0.324,0.081,0.673,0.405,0.641,0.949C9.03,16.3,9.16,16.43,9.241,16.537l0.016,0.008c0.049-0.901-0.422-1.331-1.022-1.582
		c-0.52-0.203-1.112-0.39-1.436-1.169C6.758,14.523,7.277,14.946,7.829,15.206"/>
	<path d="M9.662,14.11c-0.105,0-0.211,0.032-0.3,0.098L9.37,14.24c0.057-0.016,0.113-0.024,0.162-0.024
		c0.244,0,0.446,0.122,0.56,0.293l-0.016,0.023c-0.146-0.081-0.341-0.187-0.536-0.187c-0.097,0-0.186,0.024-0.276,0.09
		c-0.194,0.146-0.17,0.568-0.235,0.787c0.098,0.104,0.171,0.219,0.235,0.34c0.106-0.276-0.008-0.803,0.163-0.925
		c0.048-0.032,0.097-0.048,0.154-0.048c0.333,0,0.787,0.511,1.144,0.511c-0.219-0.252-0.284-0.438-0.438-0.641
		C10.116,14.232,9.881,14.11,9.662,14.11"/>
	<path d="M7.658,14.54c-0.016-0.252-0.065-0.494-0.138-0.771l0.033-0.008c0.146,0.243,0.243,0.584,0.3,0.852l0.13,0.058
		c-0.065-0.642-0.414-1.437-0.998-1.818c0.413,0.584,0.478,1.331,0.535,1.623L7.658,14.54z"/>
	<path d="M10.027,19.872l0.024-0.018c0.317,0.593,0.69,1.177,1.639,1.704l-0.016,0.025c-0.454-0.18-0.779-0.382-1.111-0.658
		C10.182,20.39,10.036,19.976,10.027,19.872 M10.733,21.469c-0.17-0.146-0.438-0.333-0.876-0.568l0.016-0.023
		c0.081-0.008,0.292,0,0.568,0.193c0.657,0.464,1.144,0.739,2.191,0.975l-0.106-0.269c-0.73-0.267-1.387-0.754-1.777-2.061
		c-0.008,0.057-0.008,0.105-0.008,0.163c0,0.267,0.081,0.584,0.308,0.965l-0.024,0.017c-0.47-0.422-1.095-1.363-1.201-2.239H9.816
		c-0.057,0.203-0.073,0.397-0.073,0.592c0,0.503,0.065,0.82,0.3,1.217l-0.016,0.017c-0.592-0.567-0.803-1.477-0.803-2.158
		c0-0.431,0.065-0.593,0.065-0.981c0-0.755-0.885-1.258-1.623-2.061c0.154,0.551,0.349,1.006,0.884,1.428l0.017-0.016
		c-0.122-0.203-0.244-0.414-0.357-0.617l0.016-0.017c0.576,0.512,0.698,0.754,0.665,1.249c-0.04,0.561-0.008,0.949,0.187,1.615
		l-0.041,0.032c-0.186-0.268-0.3-0.625-0.406-1.217c-0.121-0.698-0.259-0.893-0.511-1.201c0.008,0.057,0.146,0.316,0.219,0.933
		c0.073,0.65,0.244,1.201,0.836,2.207l-0.041,0.033c-0.519-0.665-0.949-1.412-1.062-2.678c-0.057,0.153-0.09,0.324-0.09,0.503
		c0,0.171-0.008,0.356,0.049,0.527l-0.024,0.009c-0.154-0.269-0.487-0.487-0.893-0.472c0.002,0.002,0.005,0.004,0.007,0.005
		c0.418,0.327,0.911,1.254,1.137,1.569l0.065-0.048l-0.584-0.99l0.016-0.016c0.365,0.292,0.722,0.957,1.047,1.452
		c-0.154-0.05-0.349-0.089-0.552-0.089c-0.13,0-0.219,0.016-0.316,0.056c0.373,0.13,0.965,0.585,1.428,1.022l0.057-0.049
		c0,0-0.301-0.373-0.836-0.763L8.6,19.692c0.081,0,0.381,0.089,0.738,0.391c0.26,0.219,0.479,0.43,0.714,0.641l-0.016,0.024
		c-0.081-0.017-0.178-0.024-0.268-0.024c-0.138,0-0.284,0.016-0.413,0.056l0.008,0.009c0.316,0.082,0.892,0.422,1.306,0.747
		L10.733,21.469z"/>
	<path d="M7.816,17.392l0.051-0.027c-0.069-0.616-0.226-1.096-0.615-1.843l0.024-0.017c0.3,0.284,0.438,0.512,0.584,0.868
		l0.017-0.016c-0.041-0.317-0.154-0.666-0.382-0.925c-0.267-0.301-0.397-0.252-0.819-0.738c0.178,0.6,0.235,0.803,0.535,1.403
		C7.415,16.52,7.695,16.905,7.816,17.392"/>
	<path d="M7.561,17.506l0.078-0.01c-0.071-0.263-0.2-0.554-0.356-0.819c-0.133-0.056-0.342-0.098-0.586-0.11
		C7.083,16.855,7.315,17.103,7.561,17.506"/>
	<path d="M11.453,6.401c0.554-0.237,1.134-0.421,1.724-0.545c0.606-0.127,1.229-0.192,1.854-0.196c0.016,0,0.032,0,0.049,0
		c0.608,0,1.216,0.06,1.807,0.178c0.591,0.117,1.173,0.295,1.729,0.525c0.546,0.229,1.073,0.511,1.567,0.839
		c0.488,0.327,0.948,0.702,1.366,1.116c0.419,0.414,0.799,0.87,1.13,1.355c0.335,0.49,0.623,1.014,0.856,1.558
		c0.237,0.553,0.42,1.133,0.544,1.724c0.127,0.605,0.193,1.229,0.196,1.854c0.004,0.625-0.056,1.249-0.176,1.856
		c-0.118,0.591-0.295,1.173-0.527,1.729c-0.227,0.547-0.51,1.074-0.839,1.567c-0.326,0.488-0.702,0.947-1.115,1.366
		c-0.414,0.419-0.87,0.799-1.355,1.13c-0.49,0.335-1.014,0.623-1.558,0.855c-0.554,0.237-1.134,0.421-1.724,0.544
		c-0.606,0.127-1.229,0.194-1.854,0.197c-0.624,0.003-1.249-0.057-1.856-0.177c-0.591-0.118-1.173-0.295-1.729-0.527
		c-0.546-0.227-1.073-0.509-1.567-0.839c-0.488-0.326-0.948-0.701-1.366-1.115c-0.419-0.414-0.799-0.87-1.13-1.354
		c-0.335-0.49-0.622-1.015-0.856-1.559c-0.237-0.554-0.42-1.134-0.544-1.724c-0.127-0.605-0.193-1.229-0.197-1.854
		c-0.003-0.624,0.057-1.248,0.177-1.854c0.118-0.592,0.295-1.173,0.527-1.73c0.227-0.546,0.51-1.072,0.839-1.565
		c0.326-0.489,0.702-0.949,1.116-1.367c0.413-0.418,0.869-0.798,1.354-1.13C10.385,6.922,10.909,6.634,11.453,6.401 M8.398,8.246
		c-0.423,0.427-0.806,0.896-1.14,1.396c-0.336,0.504-0.625,1.043-0.857,1.601c-0.237,0.569-0.418,1.163-0.538,1.769
		c-0.123,0.62-0.184,1.258-0.181,1.896c0.003,0.639,0.071,1.275,0.201,1.894c0.126,0.603,0.313,1.196,0.556,1.762
		c0.238,0.556,0.533,1.091,0.874,1.592c0.339,0.496,0.727,0.961,1.155,1.385c0.427,0.423,0.897,0.807,1.396,1.14
		c0.504,0.337,1.043,0.625,1.601,0.856c0.568,0.237,1.163,0.418,1.767,0.538s1.225,0.182,1.846,0.182c0.017,0,0.034,0,0.05,0
		c0.638-0.003,1.275-0.071,1.894-0.2c0.603-0.127,1.196-0.314,1.762-0.557c0.555-0.238,1.091-0.532,1.592-0.874
		c0.495-0.34,0.961-0.728,1.384-1.154c0.423-0.428,0.806-0.897,1.14-1.397c0.336-0.504,0.625-1.042,0.857-1.601
		c0.237-0.568,0.418-1.163,0.538-1.767c0.123-0.62,0.184-1.259,0.181-1.896s-0.071-1.275-0.201-1.894
		c-0.126-0.604-0.313-1.196-0.556-1.762c-0.238-0.556-0.533-1.092-0.874-1.592c-0.339-0.496-0.727-0.962-1.155-1.385
		c-0.427-0.422-0.897-0.807-1.396-1.139c-0.504-0.338-1.043-0.625-1.601-0.858C18.125,5.941,17.53,5.76,16.926,5.64
		c-0.62-0.123-1.258-0.184-1.896-0.181c-0.638,0.004-1.275,0.07-1.894,0.2c-0.603,0.128-1.196,0.314-1.762,0.558
		c-0.555,0.238-1.091,0.532-1.592,0.874C9.287,7.429,8.821,7.818,8.398,8.246"/>
	<path d="M13.518,15.882c0.548,1.325,1.363,2.523,3.096,2.932c0,0,0.076-0.103,0.153-0.217c-1.376-0.396-2.064-1.479-2.586-2.715
		C14.053,15.819,13.671,15.768,13.518,15.882"/>
	<path d="M18.398,11.653v-0.025c-0.421,0.152-0.764,0.407-1.045,0.802c0.115,0.064,0.281,0.103,0.382,0.103
		C17.901,12.188,18.13,11.881,18.398,11.653"/>
	<path d="M18.194,18.583c0.115,0,0.293-0.024,0.42-0.089c-0.038-0.318-0.178-0.573-0.356-0.765
		c-0.064,0.191-0.166,0.434-0.166,0.434C18.13,18.291,18.169,18.417,18.194,18.583"/>
	<path d="M16.806,18.202c-0.051-0.064-0.077-0.14-0.077-0.229c0-0.19,0.141-0.369,0.523-0.383c0.051-0.113,0.064-0.293,0.064-0.293
		c-0.51-0.038-0.854,0.18-0.854,0.523C16.461,18.062,16.627,18.202,16.806,18.202"/>
	<path d="M15.124,15.934c0.089,0.102,0.102,0.114,0.191,0.178c0.102-0.152,0.242-0.267,0.408-0.356c0,0,0.076-0.179,0.115-0.293
		c-0.128,0.038-0.23,0.102-0.332,0.165l1.02-2.599c0.458,0.178,0.815,0.28,1.235,0.28c1.083,0,1.555-0.522,1.555-1.02
		c0-0.217-0.128-0.42-0.242-0.471c0.102,0.547-0.281,0.941-1.058,0.941c-0.662,0-1.516-0.458-1.516-0.458
		C16.359,12.94,15.264,15.641,15.124,15.934"/>
	<path d="M13.008,12.557c0.064,0.089,0.204,0.357,0.293,0.548c0.102-0.025,0.255-0.077,0.255-0.077l1.019,2.601
		c-0.306-0.204-0.701-0.307-1.07-0.307c-0.943,0-1.58,0.688-1.58,1.707c0,0.459,0.153,0.943,0.484,1.505c0,0,0.293,0,0.599-0.091
		c-0.28-0.509-0.459-1.019-0.459-1.528c0-0.828,0.433-1.325,1.121-1.325c0.472,0,0.841,0.179,1.096,0.522
		c0.089-0.063,0.102-0.076,0.191-0.179c-0.153-0.293-1.223-2.994-1.363-3.631C13.595,12.302,13.353,12.417,13.008,12.557"/>
	<path d="M15.264,20.253c0,0,0.268,0.127,0.471,0.127c1.644-0.765,2.409-2.421,2.409-3.352c0-1.019-0.332-1.516-1.198-1.681
		c-0.051,0.14-0.077,0.28-0.077,0.28c0.408,0.089,0.663,0.407,0.663,1.197C17.532,18.278,16.449,19.629,15.264,20.253"/>
	<path d="M20.437,17.169c0-0.752-0.561-1.172-1.147-1.172c-0.509,0-0.688,0.293-0.688,0.548c0,0.331,0.255,0.471,0.472,0.484
		c-0.09-0.089-0.166-0.242-0.166-0.396c0-0.152,0.102-0.331,0.382-0.331c0.28,0,0.663,0.28,0.663,0.917
		c0,0.727-0.561,1.529-2.013,1.529h-0.128c-0.025,0.089-0.102,0.217-0.102,0.217h0.293C19.176,18.966,20.437,18.279,20.437,17.169"
		/>
	<path d="M14.423,19.183c0,0,0.369,0.356,0.586,0.445c0.217-0.089,0.586-0.445,0.586-0.445s-0.357-0.218-0.586-0.434
		C14.78,18.965,14.423,19.183,14.423,19.183"/>
	<path d="M14.244,20.584c-0.115,0.013-0.204,0.013-0.306,0.013c-1.236,0-2.064-0.892-2.064-1.759c0-0.268,0.038-0.496,0.115-0.675
		c-0.089-0.153-0.191-0.408-0.191-0.408c-0.217,0.229-0.357,0.561-0.357,0.969c0,1.261,1.108,2.077,2.408,2.077
		c0.242,0,0.573-0.039,0.79-0.064C14.5,20.7,14.244,20.584,14.244,20.584"/>
	<path d="M18.169,19.144c-0.166,0.752-0.956,1.452-2.039,1.452c-0.662,0-1.388-0.305-2.013-0.802
		c-0.267-0.217-0.535-0.472-0.751-0.752c-0.243,0.063-0.587,0.089-0.587,0.089c0.701,0.892,1.835,1.669,3.453,1.669
		c1.16,0,2.166-0.662,2.37-1.694C18.424,19.131,18.169,19.144,18.169,19.144"/>
	<path d="M15.264,11.589c-0.624,0.306-0.994,0.738-0.994,1.249c0,0.509,0.37,0.841,0.803,0.841c0.42,0,0.764-0.345,0.764-0.79
		c0-0.293-0.089-0.548-0.267-0.766c-0.191,0.038-0.319,0.128-0.319,0.128c0.23,0.179,0.37,0.383,0.37,0.649
		c0,0.344-0.242,0.599-0.548,0.599c-0.319,0-0.548-0.255-0.548-0.599c0-0.497,0.459-0.802,1.096-1.032
		c1.146-0.42,2.077-0.355,3.631-0.355c1.44,0,2.166-1.097,2.217-1.606c-1.109,1.262-2.574,0.968-4.587,1.236
		C16.194,11.22,15.519,11.462,15.264,11.589"/>
	<path d="M9.594,17.169c0,0.841,0.764,1.479,1.669,1.707c0-0.089,0.013-0.229,0.013-0.229c-0.854-0.242-1.198-0.866-1.198-1.428
		c0-0.637,0.382-0.917,0.663-0.917c0.28,0,0.382,0.179,0.382,0.331c0,0.153-0.076,0.307-0.166,0.396
		c0.217-0.014,0.472-0.153,0.472-0.484c0-0.255-0.179-0.548-0.688-0.548C10.155,15.998,9.594,16.417,9.594,17.169"/>
	<path d="M10.766,12.29c0,0.497,0.471,1.02,1.554,1.02h0.077c0,0-0.115-0.369-0.217-0.549h-0.114c-0.778,0-1.16-0.395-1.058-0.941
		C10.893,11.87,10.766,12.073,10.766,12.29"/>
	<path d="M12.027,18.75c0,0,0,0.166,0.013,0.217c1.21,0,2.102-0.293,2.765-0.752c-0.141-0.102-0.293-0.306-0.293-0.306
		c-0.574,0.51-1.351,0.841-2.421,0.841H12.027z"/>
	<path d="M13.607,17.82c0-0.345-0.344-0.562-0.854-0.522c0,0,0.013,0.178,0.064,0.293c0.382,0.012,0.522,0.191,0.522,0.382
		c0,0.089-0.025,0.166-0.076,0.229C13.441,18.202,13.607,18.061,13.607,17.82"/>
	<path d="M16.806,13.347c-0.217,0.522-0.446,1.186-0.663,1.784c-0.267,0.726-0.573,1.465-0.993,2.063
		c0.076,0.127,0.229,0.293,0.356,0.396c0.65-0.701,1.096-1.771,1.415-2.841c0.153-0.153,0.331-0.243,0.573-0.243
		c0.331,0,0.471,0.217,0.484,0.649h0.115c0.127-0.521,0.318-0.993,0.611-1.541c0,0-0.089-0.051-0.178-0.051
		c-0.382,0.624-0.879,0.509-1.516,0.917c0.114-0.331,0.216-0.688,0.318-1.007C17.163,13.462,16.972,13.412,16.806,13.347"/>
	<path d="M11.62,11.627v0.024c0.701,0.625,1.045,1.657,1.402,2.829c-0.638-0.408-1.134-0.293-1.517-0.917
		c-0.089,0-0.178,0.051-0.178,0.051c0.293,0.548,0.484,1.02,0.612,1.541h0.114c0.013-0.433,0.153-0.648,0.484-0.648
		c0.242,0,0.421,0.089,0.574,0.242c0.038,0.127,0.076,0.267,0.114,0.395c0.268-0.063,0.663-0.013,0.663-0.013
		C13.315,13.589,12.869,12.073,11.62,11.627"/>
	<path d="M10.906,11.512c1.554,0,2.459-0.038,3.593,0.383c0,0,0.229-0.242,0.395-0.307c-0.255-0.127-0.93-0.369-1.618-0.446
		c-2.013-0.267-3.479,0.026-4.587-1.234C8.74,10.417,9.466,11.512,10.906,11.512"/>
	<path d="M15.512,7.346c0,0.058,0.047,0.104,0.104,0.104c0.057,0,0.104-0.047,0.104-0.104c0-0.057-0.047-0.104-0.104-0.104
		C15.559,7.243,15.512,7.29,15.512,7.346"/>
	<path d="M16.16,7.464c0.081,0,0.138-0.058,0.138-0.139c0-0.079-0.059-0.139-0.138-0.139c-0.075,0-0.138,0.063-0.138,0.139
		C16.022,7.405,16.081,7.464,16.16,7.464"/>
	<path d="M15.872,7.5c0.057,0,0.104-0.047,0.104-0.104s-0.047-0.104-0.104-0.104c-0.057,0-0.104,0.046-0.104,0.104
		S15.815,7.5,15.872,7.5"/>
	<path d="M14.538,7.451c0.057,0,0.104-0.047,0.104-0.104c0-0.057-0.047-0.104-0.104-0.104c-0.057,0-0.104,0.047-0.104,0.104
		C14.434,7.404,14.48,7.451,14.538,7.451"/>
	<path d="M14.282,7.5c0.057,0,0.104-0.047,0.104-0.104s-0.047-0.104-0.104-0.104s-0.104,0.046-0.104,0.104S14.225,7.5,14.282,7.5"/>
	<path d="M13.996,7.464c0.079,0,0.138-0.06,0.138-0.139c0-0.075-0.063-0.139-0.138-0.139c-0.079,0-0.138,0.06-0.138,0.139
		C13.858,7.407,13.915,7.464,13.996,7.464"/>
	<path d="M17.208,8.565c-0.058,0-0.104,0.047-0.104,0.104c0,0.058,0.046,0.104,0.104,0.104c0.057,0,0.104-0.047,0.104-0.104
		C17.312,8.612,17.265,8.565,17.208,8.565"/>
	<path d="M17.7,8.143c0-0.075-0.063-0.138-0.138-0.138c-0.079,0-0.139,0.059-0.139,0.138s0.06,0.138,0.139,0.138
		C17.637,8.281,17.7,8.218,17.7,8.143"/>
	<path d="M17.386,8.527c0.057,0,0.104-0.047,0.104-0.104c0-0.058-0.047-0.104-0.104-0.104s-0.104,0.047-0.104,0.104
		C17.282,8.48,17.329,8.527,17.386,8.527"/>
	<path d="M17.061,10.901v-0.326h-0.003c-0.255-0.056-0.997-0.16-1.98-0.16c-0.982,0-1.724,0.104-1.98,0.16h-0.002v0.326L13.1,10.9
		c0.255-0.051,0.997-0.147,1.978-0.147c0.982,0,1.724,0.097,1.979,0.147L17.061,10.901z"/>
	<path d="M12.595,8.004c-0.075,0-0.138,0.063-0.138,0.139s0.063,0.139,0.138,0.139c0.079,0,0.138-0.06,0.138-0.139
		S12.674,8.004,12.595,8.004"/>
	<path d="M13.384,8.481l-0.012,0.008l0.053,0.129l0.013-0.01c0.001,0,0.111-0.081,0.318-0.161c0.191-0.074,0.506-0.162,0.922-0.162
		h0.018L14.65,8.149h-0.009C13.903,8.149,13.492,8.403,13.384,8.481"/>
	<path d="M16.731,8.618l0.053-0.129l-0.012-0.008c-0.108-0.078-0.519-0.332-1.257-0.332h-0.009L15.46,8.285h0.018
		c0.797,0,1.236,0.32,1.24,0.323L16.731,8.618z"/>
	<path d="M17.538,9.255l0.008,0.016l0.098-0.099L17.64,9.165c-0.01-0.02-0.141-0.228-0.299-0.343l-0.007-0.005l-0.1,0.087
		C17.42,9.042,17.537,9.253,17.538,9.255"/>
	<path d="M12.815,8.822c-0.157,0.115-0.289,0.323-0.299,0.343l-0.004,0.008l0.098,0.099l0.008-0.016
		c0.001-0.002,0.118-0.214,0.304-0.352l-0.1-0.087L12.815,8.822z"/>
	<path d="M18.356,7.98c0.079,0,0.138-0.06,0.138-0.138c0-0.075-0.063-0.139-0.138-0.139c-0.075,0-0.138,0.063-0.138,0.139
		C18.218,7.92,18.277,7.98,18.356,7.98"/>
	<path d="M18.024,7.845c0.079,0,0.138-0.06,0.138-0.138c0-0.075-0.063-0.14-0.138-0.14c-0.075,0-0.138,0.064-0.138,0.14
		C17.886,7.786,17.945,7.845,18.024,7.845"/>
	<path d="M18.553,9.043c0.075,0,0.138-0.063,0.138-0.138c0-0.075-0.063-0.14-0.138-0.14c-0.075,0-0.138,0.064-0.138,0.14
		C18.415,8.98,18.478,9.043,18.553,9.043"/>
	<path d="M11.812,7.98c0.079,0,0.138-0.06,0.138-0.138c0-0.075-0.063-0.139-0.138-0.139c-0.075,0-0.138,0.063-0.138,0.139
		C11.674,7.92,11.732,7.98,11.812,7.98"/>
	<path d="M11.574,8.303c0.086,0,0.157-0.073,0.157-0.163c0-0.088-0.069-0.157-0.157-0.157c-0.09,0-0.163,0.071-0.163,0.157
		C11.411,8.228,11.486,8.303,11.574,8.303"/>
	<path d="M11.501,8.712c0.086,0,0.157-0.073,0.157-0.163c0-0.088-0.069-0.157-0.157-0.157c-0.09,0-0.163,0.071-0.163,0.157
		C11.338,8.637,11.413,8.712,11.501,8.712"/>
	<path d="M12.144,7.845c0.079,0,0.138-0.06,0.138-0.138c0-0.075-0.063-0.14-0.138-0.14c-0.075,0-0.138,0.064-0.138,0.14
		C12.006,7.786,12.064,7.845,12.144,7.845"/>
	<path d="M11.615,8.767c-0.075,0-0.138,0.062-0.138,0.138s0.063,0.139,0.138,0.139c0.075,0,0.138-0.063,0.138-0.139
		S11.69,8.767,11.615,8.767"/>
	<path d="M11.827,9.242c0.058,0,0.104-0.047,0.104-0.104s-0.046-0.104-0.104-0.104c-0.057,0-0.104,0.046-0.104,0.104
		S11.77,9.242,11.827,9.242"/>
	<path d="M13.394,9.099c0.068,0,0.126,0.058,0.126,0.126s-0.058,0.126-0.126,0.126c-0.072,0-0.126-0.054-0.126-0.126
		S13.322,9.099,13.394,9.099 M15.078,8.878c0.1,0,0.181,0.081,0.181,0.181c0,0.103-0.079,0.181-0.181,0.181
		c-0.101,0-0.181-0.078-0.181-0.181C14.897,8.959,14.978,8.878,15.078,8.878 M16.763,9.099c0.071,0,0.125,0.054,0.125,0.126
		s-0.054,0.126-0.125,0.126c-0.069,0-0.126-0.058-0.126-0.126S16.694,9.099,16.763,9.099 M12.739,7.805
		c0,0.234,0.147,0.437,0.276,0.616c0.088,0.121,0.171,0.234,0.196,0.343c-0.029,0.009-0.052,0.029-0.06,0.052
		c-0.005,0.017-0.003,0.033,0.008,0.046l0.043,0.056c0.011,0.014,0.016,0.025,0.014,0.037c-0.001,0.007-0.005,0.013-0.012,0.017
		c-0.016,0.011-0.031-0.007-0.036-0.016l-0.025-0.031c-0.01-0.013-0.024-0.021-0.04-0.023c-0.015-0.001-0.03,0.005-0.042,0.018
		l-0.104,0.115c-0.014,0.014-0.02,0.029-0.018,0.046s0.014,0.031,0.032,0.043l0.044,0.024c0.044,0.022,0.045,0.03,0.039,0.042
		c-0.009,0.015-0.033,0.013-0.094-0.004c-0.024-0.007-0.045-0.003-0.058,0.009c-0.014,0.013-0.019,0.03-0.015,0.05l0.012,0.122
		c0,0.02,0.008,0.035,0.021,0.044c0.011,0.009,0.032,0.016,0.065,0.003c0.017-0.007,0.068-0.026,0.081-0.021
		c0.002,0.001,0.004,0.002,0.005,0.008c0.004,0.012-0.008,0.021-0.045,0.045c-0.014,0.011-0.021,0.022-0.022,0.035
		c-0.001,0.017,0.008,0.034,0.026,0.052L13.092,9.6c0.017,0.017,0.036,0.025,0.057,0.022c0.02-0.002,0.04-0.014,0.061-0.034
		c0.016-0.016,0.03-0.031,0.044-0.047c0.013-0.016,0.027-0.03,0.042-0.045c0.005-0.006,0.012-0.011,0.019-0.009
		c0.01,0.002,0.019,0.015,0.027,0.035c0.029,0.078,0.027,0.144-0.005,0.189c-0.034,0.049-0.104,0.075-0.201,0.075
		c-0.087,0-0.149-0.039-0.169-0.075c-0.011-0.019-0.011-0.036-0.001-0.053V9.658c0.024-0.041,0.046-0.079-0.016-0.12l-0.061-0.044
		c-0.044-0.031-0.082-0.028-0.111,0.009c-0.039,0.052-0.059,0.054-0.086,0.041c-0.028-0.017-0.026-0.052-0.022-0.101
		c0.001-0.016,0.002-0.034,0.002-0.052c0-0.039-0.01-0.065-0.029-0.079c-0.032-0.021-0.085-0.007-0.138,0.013
		c-0.051-0.059-0.117-0.118-0.188-0.182c-0.197-0.177-0.42-0.378-0.42-0.643c0-0.193,0.109-0.303,0.201-0.361
		c0.102-0.064,0.211-0.085,0.232-0.085h0.015l-0.071-0.149l-0.006,0.001c-0.089,0.014-0.224,0.061-0.339,0.155
		c-0.093,0.077-0.204,0.213-0.204,0.426c0,0.322,0.226,0.527,0.425,0.707l0.014,0.014c0.062,0.056,0.145,0.134,0.2,0.192h-0.089
		c-0.164,0-0.229,0.127-0.23,0.128l-0.006,0.015h0.015c0.208,0,0.468,0.088,0.678,0.229c0.227,0.153,0.357,0.339,0.357,0.51v0.013
		l0.012-0.003c0.255-0.051,0.996-0.147,1.977-0.147c0.982,0,1.723,0.097,1.978,0.147l0.011,0.003v-0.013
		c0-0.171,0.13-0.356,0.357-0.51c0.211-0.142,0.471-0.229,0.679-0.229h0.015l-0.007-0.015C18.11,9.527,18.046,9.4,17.881,9.4h-0.089
		c0.056-0.059,0.139-0.137,0.2-0.192l0.014-0.014c0.2-0.18,0.426-0.385,0.426-0.707c0-0.213-0.111-0.349-0.204-0.426
		c-0.115-0.095-0.251-0.142-0.339-0.155l-0.007-0.001l-0.071,0.149h0.015c0.022,0,0.13,0.021,0.232,0.085
		c0.092,0.059,0.201,0.168,0.201,0.361c0,0.265-0.223,0.466-0.42,0.643c-0.07,0.063-0.137,0.123-0.188,0.182
		c-0.053-0.02-0.106-0.033-0.137-0.013c-0.02,0.014-0.029,0.04-0.029,0.079c0,0.018,0.001,0.036,0.002,0.052
		c0.003,0.047,0.005,0.084-0.022,0.1c-0.028,0.014-0.048,0.012-0.087-0.04c-0.029-0.037-0.066-0.04-0.111-0.009l-0.061,0.044
		c-0.062,0.041-0.04,0.079-0.016,0.12l0.001,0.002C17.2,9.676,17.2,9.694,17.19,9.712c-0.021,0.036-0.082,0.075-0.169,0.075
		c-0.098,0-0.167-0.026-0.202-0.075c-0.032-0.046-0.033-0.111-0.005-0.189c0.008-0.021,0.018-0.033,0.027-0.035
		c0.008-0.002,0.015,0.003,0.019,0.009c0.015,0.015,0.029,0.029,0.043,0.046c0.014,0.015,0.028,0.03,0.043,0.046
		c0.021,0.021,0.042,0.032,0.062,0.034c0.02,0.003,0.039-0.006,0.057-0.022l0.061-0.067c0.018-0.019,0.027-0.036,0.026-0.053
		c-0.001-0.013-0.008-0.024-0.022-0.035C17.094,9.42,17.081,9.412,17.085,9.4c0.002-0.006,0.004-0.007,0.005-0.008
		c0.012-0.005,0.052,0.009,0.081,0.021c0.034,0.013,0.054,0.006,0.065-0.003c0.014-0.009,0.021-0.024,0.021-0.043l0.013-0.121
		c0.003-0.021-0.002-0.039-0.015-0.052c-0.014-0.012-0.035-0.016-0.058-0.009c-0.061,0.017-0.086,0.019-0.094,0.005
		c-0.007-0.013-0.005-0.021,0.039-0.043l0.043-0.024c0.019-0.012,0.03-0.026,0.032-0.043S17.213,9.047,17.2,9.034l-0.105-0.116
		c-0.011-0.012-0.026-0.018-0.041-0.017c-0.016,0.002-0.031,0.011-0.041,0.023l-0.025,0.031c-0.005,0.009-0.02,0.026-0.036,0.016
		c-0.006-0.004-0.011-0.01-0.012-0.017c-0.001-0.012,0.004-0.023,0.014-0.037l0.043-0.056c0.011-0.013,0.014-0.029,0.008-0.046
		c-0.008-0.022-0.03-0.043-0.059-0.052c0.025-0.108,0.107-0.222,0.195-0.343c0.13-0.18,0.276-0.382,0.276-0.616
		c0-0.195-0.118-0.403-0.452-0.403c-0.165,0-0.345,0.054-0.519,0.104c-0.168,0.049-0.341,0.1-0.495,0.1
		c-0.19,0-0.314-0.026-0.695-0.281l-0.009-0.006L15.22,7.364l0.005,0.005c0.059,0.06,0.337,0.374,0.066,0.838l-0.003,0.005
		l0.022,0.031l0.008-0.007c0.183-0.16,0.298-0.39,0.157-0.662c0.152,0.132,0.32,0.18,0.501,0.18c0.193,0,0.37-0.057,0.549-0.106
		c0.146-0.04,0.284-0.079,0.391-0.079c0.221,0,0.329,0.088,0.329,0.269c0,0.167-0.12,0.345-0.235,0.517
		c-0.089,0.132-0.173,0.256-0.205,0.375c-0.032-0.005-0.061,0.001-0.079,0.018c-0.013,0.011-0.018,0.026-0.016,0.045l0.013,0.086
		c0.002,0.011,0,0.019-0.004,0.024c-0.004,0.005-0.01,0.007-0.018,0.007c-0.007,0-0.021,0-0.028-0.041l-0.006-0.03
		c-0.003-0.018-0.013-0.031-0.028-0.038c-0.015-0.007-0.032-0.007-0.046,0l-0.154,0.067c-0.017,0.01-0.029,0.023-0.033,0.038
		c-0.003,0.012-0.002,0.022,0.005,0.032l0.05,0.056C16.469,9,16.474,9.008,16.477,9.014c0.003,0.008,0.002,0.015-0.004,0.02
		c-0.006,0.007-0.018,0.006-0.056-0.02l-0.031-0.018c-0.016-0.011-0.034-0.014-0.051-0.009c-0.015,0.004-0.028,0.016-0.036,0.03
		L16.25,9.124c-0.007,0.017-0.007,0.029-0.002,0.042c0.007,0.014,0.021,0.023,0.044,0.031l0.038,0.013
		c0.023,0.007,0.055,0.018,0.061,0.028c0.001,0.002,0.002,0.004,0,0.01c-0.004,0.01-0.007,0.011-0.043,0.016l-0.011,0.002
		c-0.019,0.003-0.032,0.01-0.04,0.021c-0.007,0.01-0.009,0.024-0.005,0.046l0.031,0.122c0.003,0.02,0.014,0.036,0.029,0.046
		c0.016,0.01,0.036,0.011,0.057,0.004c0.027-0.007,0.062-0.021,0.093-0.032c0.018-0.006,0.035-0.012,0.049-0.017
		c0.018-0.008,0.032-0.009,0.038-0.004s0.006,0.016,0.004,0.024c-0.025,0.189-0.116,0.281-0.279,0.281
		c-0.172,0-0.24-0.157-0.259-0.214c0.038-0.021,0.078-0.067,0.078-0.127c0-0.079-0.067-0.146-0.145-0.146
		c-0.078,0-0.145,0.066-0.145,0.146c0,0.054,0.029,0.104,0.072,0.127c-0.04,0.102-0.126,0.22-0.308,0.22
		c-0.087,0-0.175-0.038-0.243-0.104C15.298,9.596,15.26,9.516,15.26,9.44c0-0.049,0.014-0.084,0.038-0.095
		c0.016-0.007,0.037-0.002,0.057,0.016l0.123,0.117c0.04,0.034,0.077,0.034,0.111-0.001l0.087-0.093
		c0.013-0.018,0.019-0.035,0.016-0.052c-0.003-0.018-0.014-0.031-0.031-0.041c-0.014-0.01-0.029-0.02-0.031-0.026
		c0-0.002,0-0.005,0.003-0.01c0.007-0.012,0.045,0.006,0.093,0.027l0.012,0.007c0.019,0.009,0.039,0.009,0.056,0
		c0.02-0.011,0.034-0.031,0.037-0.058l0.025-0.189c0.004-0.027-0.004-0.053-0.019-0.068c-0.014-0.014-0.032-0.019-0.053-0.016
		c-0.018,0.002-0.037,0.006-0.053,0.009c-0.024,0.005-0.052,0.011-0.054,0.003c-0.002-0.007,0.001-0.017,0.044-0.031
		c0.019-0.008,0.034-0.021,0.04-0.039c0.007-0.017,0.005-0.036-0.004-0.054l-0.056-0.111c-0.01-0.02-0.027-0.034-0.048-0.041
		C15.633,8.688,15.61,8.69,15.59,8.7l-0.178,0.1c-0.038,0.019-0.05,0.02-0.063,0.007c-0.008-0.008-0.013-0.02,0.013-0.055
		l0.111-0.153c0.013-0.017,0.019-0.038,0.016-0.058c-0.004-0.022-0.017-0.041-0.037-0.055l-0.086-0.062
		c-0.039-0.026-0.076-0.021-0.105,0.014c-0.005,0.007-0.009,0.013-0.014,0.02c-0.016,0.021-0.023,0.029-0.03,0.027
		c-0.004-0.002-0.005-0.003-0.005-0.004c-0.003-0.006,0.003-0.021,0.011-0.039c0.008-0.018,0.017-0.041,0.024-0.068
		c0.006-0.021,0.003-0.042-0.009-0.059c-0.013-0.018-0.036-0.027-0.061-0.027H14.98c-0.026,0-0.048,0.01-0.062,0.027
		c-0.012,0.017-0.015,0.036-0.009,0.059c0.007,0.027,0.017,0.051,0.025,0.068c0.007,0.018,0.013,0.033,0.011,0.039
		c-0.001,0.001-0.002,0.002-0.005,0.004c-0.007,0.002-0.015-0.007-0.032-0.028c-0.004-0.006-0.008-0.012-0.013-0.019
		c-0.028-0.035-0.066-0.04-0.105-0.014l-0.086,0.062c-0.02,0.014-0.033,0.032-0.036,0.055c-0.004,0.02,0.002,0.041,0.015,0.057
		l0.111,0.154c0.026,0.035,0.021,0.047,0.013,0.055c-0.012,0.013-0.024,0.012-0.062-0.007l-0.179-0.1
		c-0.02-0.01-0.042-0.012-0.063-0.006c-0.021,0.007-0.038,0.021-0.048,0.041L14.4,8.846c-0.01,0.018-0.011,0.037-0.005,0.054
		c0.007,0.018,0.021,0.031,0.041,0.039c0.043,0.015,0.046,0.024,0.043,0.032c-0.002,0.007-0.03,0.001-0.054-0.004
		c-0.016-0.003-0.034-0.007-0.052-0.009c-0.021-0.003-0.04,0.002-0.053,0.016c-0.016,0.016-0.023,0.041-0.019,0.068l0.024,0.189
		c0.004,0.026,0.017,0.047,0.037,0.058c0.018,0.009,0.038,0.009,0.056,0l0.013-0.007c0.048-0.021,0.085-0.039,0.092-0.027
		c0.004,0.005,0.004,0.008,0.003,0.01c-0.002,0.007-0.016,0.017-0.03,0.026c-0.018,0.01-0.029,0.023-0.032,0.041
		c-0.003,0.017,0.003,0.034,0.017,0.053l0.087,0.092c0.034,0.035,0.07,0.035,0.111,0.001l0.123-0.117
		c0.02-0.018,0.04-0.022,0.057-0.016c0.023,0.011,0.038,0.046,0.038,0.095c0,0.076-0.038,0.156-0.104,0.219
		c-0.068,0.066-0.157,0.104-0.243,0.104c-0.182,0-0.268-0.118-0.308-0.22c0.043-0.022,0.071-0.073,0.071-0.127
		c0-0.079-0.066-0.146-0.145-0.146c-0.078,0-0.144,0.066-0.144,0.146c0,0.06,0.039,0.106,0.078,0.127
		c-0.019,0.057-0.088,0.214-0.259,0.214c-0.163,0-0.255-0.092-0.28-0.281c-0.001-0.009-0.001-0.02,0.004-0.024
		c0.007-0.005,0.021-0.004,0.039,0.004c0.014,0.005,0.031,0.011,0.049,0.018c0.031,0.011,0.065,0.024,0.092,0.031
		c0.021,0.007,0.041,0.006,0.057-0.004c0.016-0.01,0.026-0.025,0.029-0.045l0.031-0.124c0.004-0.021,0.003-0.035-0.005-0.045
		c-0.007-0.012-0.02-0.019-0.04-0.021l-0.01-0.002c-0.036-0.005-0.04-0.006-0.044-0.016c-0.001-0.006-0.001-0.008,0-0.01
		c0.006-0.011,0.038-0.021,0.062-0.028l0.037-0.013c0.023-0.008,0.038-0.018,0.044-0.031c0.006-0.013,0.005-0.026-0.002-0.042
		l-0.049-0.105c-0.007-0.015-0.02-0.026-0.036-0.03c-0.016-0.005-0.034-0.002-0.051,0.009l-0.031,0.018
		c-0.037,0.025-0.049,0.026-0.056,0.02c-0.01-0.01-0.005-0.023,0.013-0.043l0.05-0.056c0.006-0.009,0.008-0.02,0.005-0.031
		c-0.004-0.015-0.017-0.028-0.034-0.038l-0.153-0.066c-0.015-0.008-0.032-0.008-0.047-0.001c-0.014,0.007-0.024,0.021-0.028,0.038
		l-0.006,0.03c-0.007,0.041-0.02,0.041-0.028,0.041c-0.007,0-0.014-0.002-0.018-0.007c-0.004-0.006-0.005-0.014-0.003-0.024
		l0.012-0.086c0.003-0.019-0.003-0.034-0.016-0.045c-0.017-0.017-0.047-0.022-0.079-0.018c-0.031-0.119-0.115-0.243-0.204-0.375
		c-0.116-0.172-0.236-0.35-0.236-0.517c0-0.181,0.108-0.269,0.329-0.269c0.107,0,0.245,0.039,0.392,0.079
		c0.178,0.05,0.38,0.106,0.573,0.106c0.182,0,0.319-0.062,0.429-0.126c-0.053,0.227,0.022,0.448,0.204,0.608l0.008,0.007
		l0.022-0.031l-0.003-0.005c-0.271-0.464,0.008-0.778,0.066-0.838l0.005-0.005l-0.027-0.046l-0.008,0.006
		c-0.382,0.255-0.505,0.281-0.696,0.281c-0.154,0-0.327-0.051-0.495-0.1c-0.173-0.05-0.353-0.104-0.519-0.104
		C12.858,7.402,12.739,7.61,12.739,7.805"/>
	<path d="M13.052,8.668c0-0.057-0.047-0.104-0.104-0.104c-0.057,0-0.104,0.047-0.104,0.104c0,0.059,0.047,0.104,0.104,0.104
		C13.004,8.773,13.052,8.727,13.052,8.668"/>
	<path d="M12.77,8.319c-0.057,0-0.104,0.047-0.104,0.104c0,0.058,0.047,0.104,0.104,0.104c0.057,0,0.104-0.047,0.104-0.104
		C12.874,8.366,12.826,8.319,12.77,8.319"/>
	<path d="M12.17,9.314c0-0.057-0.047-0.104-0.104-0.104c-0.058,0-0.104,0.047-0.104,0.104c0,0.059,0.046,0.104,0.104,0.104
		C12.123,9.418,12.17,9.373,12.17,9.314"/>
	<path d="M18.336,9.034c-0.057,0-0.104,0.047-0.104,0.104c0,0.058,0.047,0.104,0.104,0.104s0.104-0.047,0.104-0.104
		C18.44,9.081,18.394,9.034,18.336,9.034"/>
	<path d="M18.097,9.21c-0.057,0-0.104,0.047-0.104,0.104c0,0.059,0.047,0.104,0.104,0.104s0.104-0.046,0.104-0.104
		C18.201,9.257,18.154,9.21,18.097,9.21"/>
	<path d="M18.5,8.549c0,0.088,0.075,0.163,0.163,0.163c0.086,0,0.157-0.073,0.157-0.163c0-0.088-0.069-0.157-0.157-0.157
		C18.573,8.392,18.5,8.463,18.5,8.549"/>
	<path d="M18.438,8.14c0,0.088,0.075,0.163,0.163,0.163c0.086,0,0.157-0.073,0.157-0.163c0-0.088-0.069-0.157-0.157-0.157
		C18.511,7.983,18.438,8.054,18.438,8.14"/>
	<path d="M17.193,7.332c0.086,0,0.157-0.072,0.157-0.163c0-0.088-0.069-0.156-0.157-0.156c-0.09,0-0.163,0.07-0.163,0.156
		C17.03,7.257,17.104,7.332,17.193,7.332"/>
	<path d="M12.97,7.332c0.086,0,0.157-0.072,0.157-0.163c0-0.088-0.069-0.156-0.157-0.156c-0.09,0-0.163,0.07-0.163,0.156
		C12.807,7.257,12.882,7.332,12.97,7.332"/>
	<path d="M17.537,7.55c0.086,0,0.157-0.073,0.157-0.163c0-0.088-0.069-0.157-0.157-0.157c-0.09,0-0.163,0.071-0.163,0.157
		C17.374,7.475,17.449,7.55,17.537,7.55"/>
	<path d="M12.625,7.55c0.086,0,0.157-0.073,0.157-0.163c0-0.088-0.069-0.157-0.157-0.157c-0.09,0-0.163,0.071-0.163,0.157
		C12.462,7.475,12.538,7.55,12.625,7.55"/>
	<path d="M16.479,7.363c0.081,0,0.138-0.058,0.138-0.139c0-0.078-0.059-0.139-0.138-0.139c-0.075,0-0.138,0.064-0.138,0.139
		C16.342,7.302,16.401,7.363,16.479,7.363"/>
	<path d="M13.677,7.363c0.082,0,0.138-0.058,0.138-0.139c0-0.078-0.059-0.139-0.138-0.139c-0.075,0-0.138,0.064-0.138,0.139
		C13.539,7.302,13.598,7.363,13.677,7.363"/>
	<path d="M13.348,7.317c0.082,0,0.138-0.058,0.138-0.139c0-0.079-0.059-0.139-0.138-0.139c-0.075,0-0.138,0.063-0.138,0.139
		C13.209,7.256,13.269,7.317,13.348,7.317"/>
	<path d="M16.809,7.317c0.081,0,0.138-0.058,0.138-0.139c0-0.079-0.059-0.139-0.138-0.139c-0.075,0-0.138,0.063-0.138,0.139
		C16.67,7.256,16.729,7.317,16.809,7.317"/>
	<path d="M12.502,7.944c0.086,0,0.157-0.073,0.157-0.163c0-0.088-0.069-0.157-0.157-0.157c-0.09,0-0.163,0.071-0.163,0.157
		C12.339,7.869,12.415,7.944,12.502,7.944"/>
	<path d="M17.497,7.781c0,0.088,0.075,0.163,0.163,0.163c0.086,0,0.157-0.073,0.157-0.163c0-0.088-0.069-0.157-0.157-0.157
		C17.57,7.624,17.497,7.694,17.497,7.781"/>
	<path d="M15.238,7.779c0-0.089-0.069-0.157-0.157-0.157c-0.09,0-0.163,0.07-0.163,0.157c0,0.088,0.075,0.162,0.163,0.162
		C15.168,7.941,15.238,7.869,15.238,7.779"/>
	<path d="M15.182,7.435c0-0.057-0.047-0.104-0.104-0.104c-0.058,0-0.104,0.047-0.104,0.104c0,0.058,0.046,0.104,0.104,0.104
		C15.135,7.54,15.182,7.493,15.182,7.435"/>
	<path d="M14.974,8.127c0,0.059,0.047,0.104,0.104,0.104s0.104-0.046,0.104-0.104c0-0.057-0.047-0.104-0.104-0.104
		S14.974,8.071,14.974,8.127"/>
	<path d="M14.671,6.7h0.128V6.585h0.099c0.019,0.052,0.059,0.093,0.109,0.113v0.1c-0.189,0.034-0.336,0.194-0.336,0.398
		c0.135-0.033,0.271-0.05,0.407-0.05c0.136,0,0.272,0.017,0.407,0.05c0-0.204-0.147-0.364-0.336-0.398v-0.1
		c0.05-0.021,0.09-0.062,0.109-0.113h0.099V6.7h0.128V6.585h0.118V6.458h-0.118V6.339h-0.128v0.119h-0.099
		c-0.001-0.004-0.003-0.007-0.004-0.01c-0.021-0.05-0.063-0.089-0.114-0.107v-0.11h0.128V6.113H15.14V5.968h-0.123v0.145h-0.129
		v0.118h0.129v0.11c-0.052,0.019-0.094,0.058-0.115,0.107c-0.001,0.003-0.003,0.006-0.004,0.01h-0.099V6.339h-0.128v0.119h-0.118
		v0.127h0.118V6.7z"/>
</g>
<rect x="124.433" y="11.326" width="1.133" height="9.938"/>
<rect x="120.814" y="8.047" width="1.113" height="13.216"/>
<g>
	<path d="M111.177,15.599c0.199-2.146,1.351-3.537,3.259-3.537c2.146,0,3.1,1.669,3.2,3.537H111.177z M114.436,11.088
		c-2.663,0-4.431,2.027-4.431,5.346c0,3.18,1.768,5.068,4.61,5.068c1.947,0,3.696-1.094,4.034-3.2h-1.132
		c-0.179,1.252-1.253,2.246-2.902,2.246c-2.226,0-3.398-1.57-3.478-3.955h7.632v-0.378
		C118.769,13.076,117.238,11.088,114.436,11.088"/>
	<path d="M103.903,20.548c-2.186,0-3.359-1.63-3.359-4.253c0-2.644,1.173-4.253,3.359-4.253c1.928,0,3.239,1.609,3.239,4.253
		C107.143,18.958,105.832,20.548,103.903,20.548 M107.043,12.559c-0.676-0.914-1.828-1.471-3.14-1.471
		c-2.663,0-4.491,1.789-4.491,5.207s1.848,5.207,4.412,5.207c1.331,0,2.563-0.637,3.219-1.551v1.073
		c0,1.868-1.292,2.702-3.179,2.702c-0.577,0-1.093-0.039-1.73-0.258v1.073c0.577,0.14,1.133,0.198,1.829,0.198
		c2.027,0,4.193-1.032,4.193-3.716v-9.698h-1.113V12.559z"/>
	<path d="M93.888,11.088c-1.55,0-2.643,0.656-3.339,1.55v-1.312h-1.132v9.937h1.132v-7.055c0.537-1.133,1.769-2.166,3.2-2.166
		c1.57,0,2.623,0.874,2.623,3.041v6.18h1.113v-6.32C97.485,12.3,96.034,11.088,93.888,11.088"/>
	<path d="M60.422,19.117v-6.836h2.365v-0.954h-2.365V9.2h-1.093v2.127h-1.61v0.954h1.61v6.916c0,1.55,0.735,2.067,2.345,2.067h1.471
		V20.31h-1.511C60.76,20.31,60.422,19.992,60.422,19.117"/>
	<path d="M49.293,15.599c0.199-2.146,1.351-3.537,3.259-3.537c2.147,0,3.1,1.669,3.2,3.537H49.293z M52.553,11.088
		c-2.663,0-4.431,2.027-4.431,5.346c0,3.18,1.768,5.068,4.61,5.068c1.947,0,3.696-1.094,4.034-3.2h-1.132
		c-0.179,1.252-1.253,2.246-2.902,2.246c-2.226,0-3.398-1.57-3.478-3.955h7.632v-0.378C56.886,13.076,55.354,11.088,52.553,11.088"
		/>
	<path d="M40.669,20.191h-2.822V9.122h2.822c3.359,0,4.909,2.006,4.909,5.564C45.578,18.163,44.028,20.191,40.669,20.191
		 M40.689,8.047h-3.955v13.216h3.955c4.054,0,6.022-2.306,6.022-6.577C46.711,10.373,44.743,8.047,40.689,8.047"/>
</g>
<polygon points="77.414,8.803 77.414,8.048 76.659,8.048 70.041,14.745 70.041,8.048 68.968,8.048 68.968,21.263 70.041,21.263 
	70.041,16.156 72.128,14.069 76.997,21.263 77.772,21.263 77.772,20.508 72.883,13.334 "/>
<g>
	<path d="M82.918,20.548c-2.146,0-3.458-1.57-3.458-4.253s1.312-4.253,3.458-4.253s3.477,1.57,3.477,4.253
		S85.064,20.548,82.918,20.548 M82.918,11.088c-2.782,0-4.591,1.848-4.591,5.207s1.809,5.207,4.591,5.207
		c2.782,0,4.61-1.848,4.61-5.207S85.7,11.088,82.918,11.088"/>
</g>
<polygon points="173.358,12.083 173.358,11.327 172.563,11.327 167.217,16.613 167.217,8.047 166.104,8.047 166.104,21.263 
	167.217,21.263 167.217,18.103 169.284,16.076 172.881,21.263 173.755,21.263 173.755,20.508 170.098,15.281 "/>
<rect x="124.433" y="8.047" width="1.133" height="1.907"/>
<g>
	<path d="M179.001,20.548c-2.186,0-3.357-1.63-3.357-4.253c0-2.644,1.172-4.253,3.357-4.253c1.928,0,3.24,1.609,3.24,4.253
		C182.241,18.958,180.929,20.548,179.001,20.548 M182.142,12.559c-0.676-0.914-1.828-1.471-3.141-1.471
		c-2.663,0-4.49,1.789-4.49,5.207s1.848,5.207,4.412,5.207c1.331,0,2.562-0.637,3.219-1.551v1.312h1.093v-9.937h-1.093V12.559z"/>
	<path d="M196.866,15.599c0.199-2.146,1.352-3.537,3.26-3.537c2.146,0,3.1,1.669,3.199,3.537H196.866z M200.126,11.088
		c-2.663,0-4.432,2.027-4.432,5.346c0,3.18,1.769,5.068,4.61,5.068c1.948,0,3.696-1.094,4.034-3.2h-1.132
		c-0.179,1.252-1.253,2.246-2.902,2.246c-2.226,0-3.397-1.57-3.478-3.955h7.632v-0.378
		C204.459,13.076,202.928,11.088,200.126,11.088"/>
</g>
<path d="M156.406,15.678l2.524-6.419l2.543,6.419H156.406z M158.254,8.047l-4.928,12.46v0.756h0.894l1.809-4.551h5.822l1.81,4.551
	h0.874v-0.756l-4.928-12.46H158.254z"/>
<g>
	<path d="M216.76,11.088c-1.353,0-2.445,0.616-3.398,1.848c-0.497-1.231-1.55-1.848-2.94-1.848c-1.412,0-2.346,0.676-3.021,1.55
		v-1.312h-1.133v9.937h1.133v-7.055c0.516-1.133,1.53-2.166,2.9-2.166c1.371,0,2.287,0.854,2.287,2.98v6.24h1.113v-7.055
		c0.635-1.232,1.629-2.166,2.92-2.166c1.371,0,2.285,0.854,2.285,2.98v6.24h1.113v-6.32
		C220.019,12.321,218.728,11.088,216.76,11.088"/>
</g>
<rect x="222.522" y="8.047" width="1.133" height="1.907"/>
<g>
	<path d="M132.043,20.548c-2.186,0-3.359-1.63-3.359-4.253c0-2.644,1.173-4.253,3.359-4.253c1.928,0,3.239,1.609,3.239,4.253
		C135.282,18.958,133.972,20.548,132.043,20.548 M135.183,12.559c-0.676-0.914-1.827-1.471-3.139-1.471
		c-2.663,0-4.491,1.789-4.491,5.207s1.848,5.207,4.411,5.207c1.333,0,2.564-0.637,3.219-1.551v1.073
		c0,1.868-1.291,2.702-3.179,2.702c-0.576,0-1.093-0.039-1.729-0.258v1.073c0.576,0.14,1.133,0.198,1.828,0.198
		c2.027,0,4.193-1.032,4.193-3.716v-9.698h-1.113V12.559z"/>
	<path d="M189.594,20.548c-2.187,0-3.359-1.63-3.359-4.253c0-2.644,1.173-4.253,3.359-4.253c1.928,0,3.239,1.609,3.239,4.253
		C192.833,18.958,191.521,20.548,189.594,20.548 M192.733,12.559c-0.676-0.914-1.828-1.471-3.14-1.471
		c-2.663,0-4.491,1.789-4.491,5.207s1.848,5.207,4.412,5.207c1.331,0,2.562-0.637,3.219-1.551v1.312h1.113V8.048h-1.113V12.559z"/>
	<path d="M139.316,15.599c0.199-2.146,1.351-3.537,3.259-3.537c2.146,0,3.101,1.669,3.199,3.537H139.316z M142.575,11.088
		c-2.662,0-4.432,2.027-4.432,5.346c0,3.18,1.77,5.068,4.611,5.068c1.947,0,3.695-1.094,4.033-3.2h-1.133
		c-0.179,1.252-1.252,2.246-2.9,2.246c-2.227,0-3.399-1.57-3.479-3.955h7.633v-0.378C146.909,13.076,145.378,11.088,142.575,11.088"
		/>
</g>
<rect x="222.522" y="11.326" width="1.133" height="9.938"/>
<g>
	<rect x="0.75" y="0.531" fill="none" stroke="#000000" stroke-width="1.295" width="230.259" height="28.651"/>
</g>
<line fill="none" stroke="#000000" stroke-width="1.295" x1="29.417" y1="0.432" x2="29.417" y2="29.28"/>
<text transform="matrix(-6.123234e-17 1 -1 -6.123234e-17 237.1367 3.7095)"><tspan x="0" y="0" font-family="'AkademiText-Regular'" font-size="13">IB</tspan><tspan x="13.793" y="0" font-family="'AkademiText-Regular'" font-size="13">K</tspan></text>
<rect x="231.01" y="0.531" fill="none" stroke="#000000" stroke-width="1.3082" width="21.6" height="28.714"/>
</svg>
