<?xml version="1.0" standalone="no"?>
<!DOCTYPE svg PUBLIC "-//W3C//DTD SVG 20010904//EN"
 "http://www.w3.org/TR/2001/REC-SVG-20010904/DTD/svg10.dtd">
<svg version="1.0" xmlns="http://www.w3.org/2000/svg"
 width="1080.000000pt" height="1080.000000pt" viewBox="0 0 1080.000000 1080.000000"
 preserveAspectRatio="xMidYMid meet">
<metadata>
Created by potrace 1.11, written by Peter Selinger 2001-2013
</metadata>
<g transform="translate(0.000000,1080.000000) scale(0.100000,-0.100000)"
fill="#000000" stroke="none">
<path d="M5188 10745 c-2 -2 -59 -6 -128 -9 -69 -3 -134 -8 -145 -10 -11 -2
-56 -7 -100 -11 -44 -4 -87 -9 -96 -10 -9 -2 -40 -6 -69 -10 -29 -4 -62 -9
-74 -11 -11 -2 -36 -6 -56 -9 -20 -3 -47 -8 -60 -10 -14 -3 -38 -8 -55 -10
-651 -113 -1392 -416 -1975 -808 -102 -68 -280 -195 -290 -207 -3 -3 -25 -21
-50 -40 -25 -19 -47 -37 -50 -40 -3 -3 -27 -23 -55 -45 -27 -22 -57 -47 -66
-55 -9 -8 -47 -42 -85 -75 -86 -75 -337 -326 -425 -425 -538 -606 -932 -1323
-1154 -2096 -14 -50 -27 -100 -30 -110 -2 -10 -15 -64 -29 -119 -13 -55 -31
-138 -40 -185 -9 -47 -21 -107 -26 -135 -5 -27 -12 -68 -14 -90 -3 -22 -10
-72 -15 -111 -6 -40 -13 -98 -16 -130 -3 -33 -8 -74 -10 -91 -25 -197 -25
-834 0 -985 2 -13 6 -54 9 -93 3 -38 8 -81 11 -94 2 -13 7 -49 10 -80 4 -31 8
-63 10 -71 3 -8 7 -31 10 -50 9 -56 44 -241 54 -285 149 -634 367 -1162 699
-1690 64 -102 264 -389 281 -405 3 -3 42 -50 86 -105 44 -55 96 -118 115 -140
279 -315 560 -573 862 -795 68 -49 128 -93 133 -98 34 -26 230 -151 345 -218
261 -155 568 -299 870 -409 124 -46 351 -119 400 -130 8 -2 70 -17 138 -34
117 -30 319 -72 408 -85 22 -4 49 -8 59 -10 11 -2 43 -7 70 -10 28 -4 61 -9
75 -11 26 -4 123 -15 175 -20 303 -29 817 -25 1095 10 30 3 71 8 90 10 19 3
53 7 75 11 22 3 54 8 70 10 17 2 41 7 55 9 14 3 39 7 55 10 17 2 41 6 55 9 14
3 52 11 85 17 33 5 87 17 120 26 33 8 67 16 75 18 28 6 185 46 215 55 199 61
468 157 590 210 22 10 69 30 105 46 110 48 330 159 435 219 55 31 116 66 135
77 41 24 313 200 320 208 3 3 36 28 74 55 63 44 305 233 332 259 6 6 47 42 90
81 312 276 642 656 885 1020 155 233 352 591 448 815 184 431 334 949 386
1330 3 25 8 57 10 71 7 43 14 100 20 166 3 34 7 70 9 80 19 97 27 674 12 853
-4 52 -9 115 -11 140 -8 104 -44 371 -60 450 -3 14 -7 39 -10 55 -39 229 -143
603 -240 865 -103 276 -245 577 -385 815 -76 129 -77 131 -130 213 -19 30 -40
62 -45 71 -18 28 -50 76 -58 86 -4 6 -40 55 -79 110 -40 55 -75 102 -78 105
-3 3 -21 25 -40 50 -19 25 -42 54 -52 65 -9 11 -33 40 -53 65 -76 92 -174 198
-305 329 -187 187 -239 234 -474 428 -55 45 -256 190 -361 260 -335 223 -714
416 -1095 558 -104 39 -270 94 -295 99 -5 1 -15 5 -21 8 -6 4 -31 12 -55 18
-24 6 -51 12 -59 14 -210 54 -369 90 -440 102 -25 4 -47 8 -50 9 -3 0 -26 4
-51 8 -25 4 -57 10 -70 12 -85 14 -259 35 -329 40 -25 2 -81 6 -125 10 -75 7
-571 15 -577 10z"/>
</g>
</svg>
